<?xml version="1.0" encoding="UTF-8"?>
<svg width="87px" height="32px" viewBox="0 0 87 32" version="1.1" xmlns="http://www.w3.org/2000/svg" xmlns:xlink="http://www.w3.org/1999/xlink">
    <title>编组</title>
    <defs>
        <path d="M0.010031194,3.42987421 C0.0346476615,3.42771996 3.90767375,0.132794403 12.4256951,0.132794403 C19.0527989,0.132794403 24.5751442,3.20511599 24.8503434,3.42987421 C24.8503434,11.5930882 23.3259775,21.9091965 12.4301873,27.5554416 C1.40944835,21.9164087 0.010031194,11.6530973 0.010031194,3.42987421 Z" id="path-1"></path>
    </defs>
    <g id="修改" stroke="none" stroke-width="1" fill="none" fill-rule="evenodd">
        <g id="编组">
            <rect id="Rectangle-3" fill="#0C68FF" x="0" y="0" width="30" height="32" rx="4"></rect>
            <g id="Group-3" transform="translate(2.674976, 2.178811)">
                <path d="M12.4220515,24.7230655 C19.4097453,20.6245242 22.0954164,14.2136799 22.345659,4.91613998 C21.7046871,4.61827286 20.9755901,4.31830074 20.1887995,4.03906815 C17.6796434,3.14856679 15.0333086,2.61793343 12.4256951,2.61793343 C9.02057253,2.61793343 6.21543034,3.17316004 3.96339283,4.08486683 C3.58412308,4.23840904 3.05518761,4.51400501 2.51088181,4.80511854 C2.73300605,14.3064137 5.34317736,20.6309687 12.4220515,24.7230655 Z M23.4381858,5.4737497 C23.44044,5.47513953 23.4426996,5.47652278 23.4449796,5.47791234 C23.4384945,5.47396005 23.4310583,5.46950307 23.4227353,5.46458436 L23.4381858,5.4737497 Z M0.010031194,3.42987421 C0.0346476615,3.42771996 3.90767375,0.132794403 12.4256951,0.132794403 C19.0527989,0.132794403 24.5751442,3.20511599 24.8503434,3.42987421 C24.8503434,11.5930882 23.3259775,21.9091965 12.4301873,27.5554416 C1.40944835,21.9164087 0.010031194,11.6530973 0.010031194,3.42987421 Z" id="Mask" fill="#FFFFFF" fill-rule="nonzero"></path>
                <g id="Path-14-+-Path-14-Copy-+-Path-14-Copy-2-Mask">
                    <mask id="mask-2" fill="white">
                        <use xlink:href="#path-1"></use>
                    </mask>
                    <g id="Mask"></g>
                    <path d="M4.43598376,20.0666055 C3.95471469,20.5558111 3.1679895,20.562245 2.67878386,20.0809759 C2.18957823,19.5997068 2.18314438,18.8129816 2.66441345,18.323776 L13.0951838,7.72099282 C13.5764529,7.23178719 14.3631781,7.22535333 14.8523837,7.70662241 C15.3415893,8.18789148 15.3480232,8.97461667 14.8667541,9.4638223 L4.43598376,20.0666055 Z" id="Path-14" fill="#FFFFFF" fill-rule="nonzero" mask="url(#mask-2)"></path>
                    <path d="M-1.7768638,20.0666055 C-2.25813287,20.5558111 -3.04485806,20.562245 -3.53406369,20.0809759 C-4.02326932,19.5997068 -4.02970318,18.8129816 -3.54843411,18.323776 L7.2129906,7.38488568 C7.69425967,6.89568005 8.48098486,6.8892462 8.9701905,7.37051527 C9.45939613,7.85178434 9.46582998,8.63850953 8.98456091,9.12771516 L-1.7768638,20.0666055 Z" id="Path-14-Copy" fill="#FFFFFF" fill-rule="nonzero" mask="url(#mask-2)"></path>
                    <path d="M5.32353341,25.4797223 C4.84226434,25.968928 4.05553915,25.9753618 3.56633351,25.4940927 C3.07712788,25.0128237 3.07069403,24.2260985 3.5519631,23.7368929 L14.3133878,12.7980025 C14.7946569,12.3087969 15.5813821,12.3023631 16.0705877,12.7836321 C16.5597933,13.2649012 16.5662272,14.0516264 16.0849581,14.540832 L5.32353341,25.4797223 Z" id="Path-14-Copy-2" fill="#FFFFFF" fill-rule="nonzero" mask="url(#mask-2)"></path>
                </g>
                <polygon id="Path-13" fill="#0C68FF" fill-rule="nonzero" points="2.49977931 18.4530099 1.17110158 17.1458878 9.67187837 8.50492551 11.0005561 9.81204762"></polygon>
                <polygon id="Path-13-Copy" fill="#0C68FF" fill-rule="nonzero" points="4.70552647 22.526191 3.37684874 21.2190689 13.222077 11.2114839 14.5507547 12.5186061"></polygon>
            </g>
            <path d="M56.1194156,2.10056437 L58.9246482,4.33672719 L57.8138458,5.43615948 L57.8051409,5.41958024 L57.8053691,29.4918469 C57.8053691,29.5772965 57.750478,29.6530783 57.6692874,29.6797189 L54.4496644,30.7361577 L54.3086636,30.7359983 C53.8119151,28.8364477 52.0601648,27.4328859 49.9753915,27.4328859 L49.9753915,26.8823406 L54.4491409,26.8815802 L54.4491409,20.9235802 L51.7687657,21.9563169 C51.781618,20.2551156 51.5268938,18.5044905 51.0045932,16.7044416 L50.9014318,17.2187276 L50.9014318,17.2187276 C50.2136663,20.5878846 48.786418,23.3218363 46.6196868,25.4205828 C47.6355358,22.6834581 48.3133774,20.0761554 48.6532117,17.5986746 C48.8431035,16.2143139 48.9799416,14.4496471 49.0637261,12.3046743 C48.3998602,11.1746957 47.5847822,9.97832352 46.6196868,8.71434564 C47.5445686,9.24442628 48.3791874,9.78789524 49.1235432,10.3447525 C49.1496949,9.16312164 49.1629631,7.88519862 49.1629631,6.51216443 L52.7718121,6.51216443 L52.7718121,7.06270973 L52.1301409,7.06258024 L52.1131696,7.45014201 C52.020488,9.23925729 51.8659544,10.9825578 51.6495689,12.6800436 C52.1601552,13.2845764 52.5767845,13.9043493 52.899239,14.5380908 C53.5819531,15.8798747 54.0993133,17.2129168 54.4513196,18.5372171 L54.4491409,4.30958024 L41.0261409,4.30958024 L41.0268456,29.4918469 C41.0268456,29.5772965 40.9719545,29.6530783 40.8907639,29.6797189 L37.6711409,30.7361577 L37.6711409,2.10780201 L41.0268456,3.20889262 L54.4496644,3.20902435 L56.1251409,2.11158024 L56.1194156,2.10056437 Z M76.9638589,25.2322352 C74.6041097,27.7932706 70.099096,29.6161624 63.4488178,30.7009106 C69.1331845,28.1020438 72.8254299,25.7498785 74.5255539,23.6444147 C74.6497117,23.4906554 74.7709689,23.3316374 74.8893257,23.1673605 C73.7454802,22.3762182 72.5367819,21.6571843 71.2646856,21.0081724 L70.9125679,22.3201835 L67.6712061,21.4516632 L69.3131409,15.3205802 L63.3982103,15.3208893 L63.3982103,14.2197987 L69.6081409,14.2195802 L71.1938372,8.30502478 L71.9471409,8.50658024 L71.9482233,8.50211791 L75.1895851,9.3706382 L75.0470935,9.90242412 L74.2941409,9.70058024 L73.0831409,14.2195802 L82.4221409,14.2195802 L82.4138702,14.2169202 L83.5349987,13.1187081 L83.5460562,13.1295904 L86.8621409,14.2195802 L86.8881432,14.2197987 L86.8881409,14.2285802 L86.8927174,14.2296751 L86.8881409,14.2335802 L86.8881432,15.3208893 L85.7801409,15.3205802 L85.7699504,15.3323282 L85.7361409,15.3205802 L81.268521,15.32093 C80.8078524,18.2140113 79.9892702,20.675745 78.8127746,22.7061311 C78.8618599,22.7253818 78.9101468,22.747451 78.9583086,22.7696559 C81.6078664,23.9912311 83.9589548,25.4560307 86.0115738,27.1640548 L83.2692099,30.6321405 C80.8387962,28.1850436 78.939387,26.3858444 77.5709824,25.234543 L77.2218952,24.943935 C77.1370842,25.0414826 77.0510721,25.1375827 76.9638589,25.2322352 Z M47.1789709,6.51216443 L47.1789709,7.06270973 L46.5351409,7.06258024 L46.5203233,7.37606605 C46.4200966,9.1580685 46.2475341,10.8907225 46.002636,12.5740281 C46.1121595,12.7784322 46.2146375,12.9864066 46.3086549,13.1966304 C47.2396413,15.2783258 47.8620603,17.3909469 48.1759121,19.5344937 L45.4792808,20.8552263 C45.3725572,19.8528714 45.2051087,18.7804056 44.9769355,17.6378287 C44.2080443,20.1677145 42.8911847,22.2640794 41.0268456,23.9273069 C42.0426946,21.4063443 42.7205363,19.004951 43.0603705,16.7231271 C43.2393229,15.521548 43.3711582,14.0088921 43.4558766,12.1851595 C42.848966,10.6857968 42.0386334,9.16208982 41.0268456,7.61325503 C41.9773246,8.21525527 42.8160943,8.84695566 43.5431547,9.5083562 C43.5607877,8.57190534 43.570122,7.57284823 43.570122,6.51216443 L47.1789709,6.51216443 Z M77.838393,15.3212195 L72.7881409,15.3205802 L71.3887883,20.5466353 C72.9653638,20.7973167 74.4551268,21.1422166 75.8580773,21.5813351 C76.7358243,19.8908955 77.3960971,17.8036593 77.838393,15.3212195 Z M74.579439,0.994580238 L77.9392208,3.23450975 L76.8284184,4.33394204 L76.8203244,4.32158024 L76.8201409,5.73758024 L82.9531409,5.73758024 L83.9884275,5.01338218 L86.9015793,6.29161639 C86.5408069,7.22179 85.9105498,8.10337306 85.0108082,8.93636556 C84.1110665,9.76935805 82.7642616,10.552615 80.9703933,11.2861363 C81.6612148,10.0673625 82.1140009,9.02683883 82.3287518,8.16456519 C82.4485091,7.6837124 82.5348747,7.24145263 82.5878485,6.83778587 L67.354786,6.83716268 C67.3707829,7.00633915 67.3842266,7.18032518 67.3951172,7.35912075 C67.4956553,9.00970314 67.1668915,10.3543827 66.4088258,11.3931595 C64.450849,10.0536398 63.4718605,9.38387995 63.4718605,9.38387995 C64.9477323,8.02509377 66.0405444,6.30266565 66.7502967,4.21659557 C66.9410141,4.64758235 67.0915941,5.15417821 67.2020366,5.73638314 L73.4651409,5.73758024 L73.4653244,2.10492357 L74.5864528,1.00671141 L74.5893244,1.00958024 L74.579439,0.994580238 Z" id="形状结合" fill="#0C68FF"></path>
        </g>
    </g>
</svg>