<?xml version="1.0" encoding="UTF-8"?>
<svg width="89px" height="34px" viewBox="0 0 89 34" version="1.1" xmlns="http://www.w3.org/2000/svg" xmlns:xlink="http://www.w3.org/1999/xlink">
    <title>white备份</title>
    <g id="white备份" stroke="none" stroke-width="1" fill="none" fill-rule="evenodd">
        <path d="M68.9566226,2.40821243 C69.211687,2.48196601 69.4639711,2.57284096 69.6903536,2.7102509 C70.0624872,2.93604806 70.3724279,3.23647683 70.5404221,3.64256052 C70.6490038,3.90479547 70.6684665,4.19234662 70.6340775,4.48253183 C70.5811037,4.92885805 70.4000855,5.33230769 70.2414567,5.74380583 C70.1703372,5.92877512 70.2386763,6.07657495 70.4189629,6.11813451 C70.4528154,6.12593912 70.485107,6.12483347 70.5165747,6.11815619 L70.5632506,6.10437888 C70.7105627,6.05023439 70.8619721,6.00974797 71.0110619,5.96076319 L71.2321546,5.87814271 C71.5824841,5.72609912 71.842085,5.8419976 72.0561753,6.12354896 C72.092174,6.17096197 72.1148562,6.22408211 72.1245144,6.2842264 C72.1684153,6.55553421 72.2196331,6.82567132 72.2587049,7.09771081 C72.2869479,7.2951187 72.2499247,7.48945353 72.1949022,7.67925193 C72.1090905,7.97520279 71.9963061,8.25879116 71.841564,8.5234986 L71.7174063,8.71838717 C71.6136538,8.86808937 71.5220472,9.02525474 71.4930725,9.20993136 C71.4578054,9.43207011 71.5505828,9.54826126 71.7769653,9.55470007 L72.2338277,9.55265136 L72.2338277,9.55265136 C72.679115,9.5594999 73.0366881,9.72304847 73.2871316,10.0731672 L73.3666183,10.1968245 C73.4209091,10.2909188 73.4801754,10.3693552 73.6080735,10.3459413 C73.7441664,10.3209178 73.8473336,10.2622369 73.88143,10.1160468 L74.1212755,9.09871564 L74.1212755,9.09871564 L74.5090671,7.34501944 L74.5090671,7.34501944 C74.5471146,7.17000102 74.6315507,7.02893267 74.768668,6.91259518 C75.0846084,6.64450678 75.4390353,6.49378022 75.861216,6.51558435 C76.0719405,6.52641325 76.2836894,6.52407187 76.4947066,6.52070613 C76.8691816,6.51485267 77.2416079,6.53387641 77.6090588,6.60821533 C77.901878,6.6674816 78.1783076,6.61860522 78.4367378,6.48178063 C78.9278796,6.22144805 79.4225609,5.96753599 79.9023844,5.6865837 L80.376574,5.39537871 C80.7519271,5.15231384 81.1452795,4.94422338 81.5844352,4.82861757 C82.168025,4.67496429 82.7157624,4.74827885 83.2263303,5.06275592 C83.6518768,5.32469819 84.0234251,5.65336989 84.3362924,6.04364925 C84.5860888,6.35519958 84.7311082,6.70933383 84.7289132,7.1145395 C84.7286205,7.18302497 84.722328,7.25224212 84.7100358,7.31955689 C84.6212095,7.80700366 84.5310663,8.29298706 84.3365851,8.75453227 C84.0886911,9.34265853 83.8668451,9.94073567 83.691973,10.5556415 L83.6050491,10.9184801 L83.6050491,10.9184801 L83.4672002,11.6511163 L83.4672002,11.6511163 C83.4183238,11.8865716 83.3709108,12.122466 83.3132542,12.3558727 C83.1982337,12.823125 82.9624857,13.227599 82.6496183,13.5893428 C82.4482594,13.8223104 82.2330394,14.0387011 81.9797579,14.2113922 L81.4484073,14.5368822 C81.3918727,14.5696182 81.3336145,14.5995522 81.2717142,14.6235026 C81.1000615,14.6900857 80.9218237,14.7234504 80.7415372,14.7357426 C80.3227222,14.7642782 79.908151,14.7189139 79.4966528,14.6395996 C79.3390485,14.6092201 79.1987235,14.5430702 79.0631609,14.4669108 L78.7946768,14.3088792 C78.6601936,14.2311745 78.5564411,14.1256659 78.4645418,14.0004019 C78.3170346,13.7993356 78.2644998,13.5710507 78.2767921,13.3334003 C78.2883161,13.113548 78.3634781,13.044164 78.5166893,13.0332922 L78.5871717,13.0319472 C78.748215,13.0356787 78.9066608,13.019472 79.0641188,12.995674 L79.5351393,12.9138536 L79.5351393,12.9138536 C79.7988376,12.8690747 80.0069281,12.7239089 80.1775564,12.5250376 C80.6970509,11.9196437 81.0642091,11.2391791 81.1540597,10.4356456 C81.2401055,9.66620846 81.2434712,8.89706399 81.0789891,8.13465101 C81.0707942,8.09631085 81.0617213,8.0579707 81.0494291,8.02080124 C80.9644076,7.76339539 80.7595365,7.66183789 80.5049111,7.75227382 C79.9359549,7.95407181 79.3652427,8.15089435 78.7997986,8.36235055 C78.5939032,8.43932353 78.398983,8.54761251 78.2033312,8.6499017 C77.9011464,8.80794508 77.5789135,8.9115513 77.2552172,9.01120644 C77.185122,9.03286423 77.1122465,9.04705887 77.0396636,9.05759509 C76.9205457,9.07500913 76.8445971,9.13793381 76.8015742,9.25002755 C76.7800627,9.30578174 76.761917,9.36226762 76.7589902,9.42050953 C76.7382105,9.80800849 76.6621155,10.1903857 76.6483599,10.5783236 L76.5943617,12.2565102 C76.5516315,13.4634934 76.5119743,14.6706229 76.4592932,15.8771671 L76.4333212,16.2044296 L76.4333212,16.2044296 L76.3507115,16.8576214 L76.3507115,16.8576214 L76.2181307,17.9690468 L76.2013751,18.0700922 L76.2013751,18.0700922 L76.1732054,18.1689425 C76.1285728,18.2947918 76.1658886,18.3950323 76.2861771,18.4509328 L76.5833133,18.5960254 C76.6829685,18.6430726 76.7846723,18.6855833 76.8927418,18.7138995 C76.9723488,18.7348743 77.0459073,18.770678 77.1173628,18.8109043 L77.2234622,18.8732599 C77.2866795,18.9113073 77.3504822,18.9465744 77.4256992,18.9575497 C77.6040833,18.9837439 77.710909,18.9001858 77.7221769,18.7206309 C77.7318351,18.5672703 77.7018361,18.4174218 77.6769589,18.2674269 C77.6528134,18.1213831 77.6415455,17.974315 77.650033,17.8273931 C77.668325,17.5083796 77.8519773,17.290192 78.1683567,17.2398522 C78.6805344,17.1581965 79.1694445,16.9982507 79.6568913,16.8308418 C80.0748038,16.6871882 80.4632459,16.4901827 80.8170515,16.2305947 L81.0251372,16.0672581 C81.2140576,15.9087757 81.4258065,15.78278 81.6461892,15.6739057 C82.0939788,15.4529377 82.5489388,15.4586448 82.9968748,15.6674669 C83.708948,15.999797 84.1762003,16.5495831 84.4033145,17.3007282 C84.4975552,17.6121322 84.5452609,17.9327554 84.5550655,18.2580614 C84.567065,18.6493651 84.4562883,19.0049627 84.2218573,19.3191471 C83.9186482,19.7258161 83.6584619,20.1586794 83.4246163,20.6080787 C83.2994986,20.8480705 83.1901852,21.0943547 83.1015053,21.3500045 L82.7965401,22.1894339 C82.7465256,22.3296459 82.6983484,22.4705029 82.6541548,22.6127419 C82.5256714,23.0267278 82.4339184,23.4465671 82.4244065,23.8833814 C82.4186994,24.1374215 82.494648,24.3519508 82.6528377,24.548627 C83.1591619,25.1783128 83.7522636,25.7100995 84.4303868,26.1482309 C85.0657797,26.5585584 85.6992703,26.9715199 86.3216393,27.4014564 C86.5601677,27.5662313 86.7943061,27.7370059 87.0056159,27.9364625 C87.196146,28.11631 87.3578478,28.3182544 87.4876482,28.5468319 C87.5505729,28.6574623 87.5474998,28.7553614 87.4845752,28.8648211 C87.4112606,28.9921338 87.3208247,29.0923743 87.1859024,29.1582257 C86.5462657,29.4709467 85.8969708,29.7606929 85.2327496,30.0186841 C84.7561318,30.2037997 84.2963426,30.18741 83.833334,29.9771245 C83.3283269,29.747669 82.8714644,29.4463622 82.4506007,29.0875452 C81.9643247,28.6731203 81.512584,28.2209406 81.0388929,27.7930528 C80.7213427,27.5062333 80.3954514,27.2302427 80.0269762,27.0095674 C79.9175165,26.9440086 79.8054228,26.882401 79.6921584,26.8238664 C79.4648978,26.7065045 79.2254914,26.6779689 78.9770121,26.7407473 C78.5137108,26.8578164 78.041483,26.917229 77.5666212,26.9564472 C77.3001425,26.9782513 77.0373222,26.9340577 76.7753799,26.8922055 L76.4130508,26.8276711 L76.4130508,26.8276711 C76.2863235,26.808062 76.1593034,26.805428 76.0322834,26.8339636 C75.9558957,26.8512313 75.8778984,26.8668893 75.8000474,26.8717184 C75.6039565,26.8840107 75.4601078,26.9882022 75.3342584,27.1248805 C75.2738946,27.1904026 75.2443164,27.2676134 75.2319418,27.3513888 L75.2247987,27.4371625 L75.1785564,28.9390137 C75.1738737,29.1007154 75.1669958,29.2621246 75.175776,29.4242654 C75.1802247,29.5059797 75.1975041,29.5756124 75.2518897,29.6242476 L75.3000157,29.6566477 C75.3598673,29.686793 75.3689402,29.7312793 75.3641111,29.7893749 C75.3194784,30.3132594 75.1756297,30.806706 74.8572015,31.2288867 C74.7137918,31.4188314 74.5128718,31.5629728 74.287221,31.6585305 L74.0137182,31.7668195 L74.0137182,31.7668195 C73.9547446,31.7899407 73.9030878,31.7829165 73.850114,31.7420887 C73.7049482,31.6304339 73.5730991,31.5076576 73.4749073,31.3510776 C73.3676427,31.1805956 73.2662315,31.0068942 73.1784296,30.8255834 C73.0849206,30.6322729 73.0496535,30.4253531 73.0378003,30.2133116 L73.0383856,30.169118 L73.0383856,30.169118 C72.9729732,29.499775 73.0692626,28.8361391 73.1061394,28.1701619 C73.1433089,27.4984775 73.1610156,26.8257688 73.1506257,26.1529137 C73.136431,25.2544078 73.1081881,24.3564872 73.071165,23.4585667 C73.0611165,23.2168188 73.0623848,22.9744206 73.066428,22.7320657 L73.0735064,22.3686527 C73.0857986,21.7401376 73.0967739,21.1114761 73.088579,20.482961 C73.0847011,20.1903612 73.0941032,19.89842 73.1089381,19.6067531 L73.1618936,18.7321915 L73.1618936,18.7321915 L73.4642247,14.0137185 C73.4800291,13.7737267 73.3758375,13.6518284 73.1320409,13.6566575 C72.9951871,13.6594672 72.8603,13.6725789 72.7416153,13.7453679 L72.6558621,13.8119205 C72.5679139,13.8962103 72.449235,13.9437697 72.3365559,13.9927924 C72.1632935,14.0680093 72.0077379,14.1701522 71.8723767,14.300538 C71.6531646,14.5117015 71.4345379,14.723743 71.2223501,14.9419307 C71.0040161,15.1667035 71.0574289,15.4242557 71.3430777,15.5585926 C71.374101,15.5730799 71.406734,15.5847868 71.4395134,15.5945914 C71.7614536,15.6919051 72.0302737,15.8795084 72.2859235,16.0892086 C72.3832373,16.1691083 72.448796,16.2708122 72.4830387,16.3932958 C72.5134767,16.5021701 72.4963553,16.6018252 72.419236,16.6811396 C72.029103,17.0823942 71.6688226,17.5129161 71.2428372,17.8789036 C71.1927901,17.9219265 71.1397513,17.9599415 71.0840675,17.9940324 L70.9986016,18.0423614 C70.9331892,18.0764578 70.8683622,18.1112859 70.8054375,18.1494797 C70.5407148,18.3103035 70.4097437,18.5440028 70.4011098,18.8559922 C70.3904435,19.2386783 70.5206071,19.542162 70.8061949,19.7665462 L70.9206043,19.8469827 C71.421953,20.1630695 71.7160893,20.6300291 71.856426,21.1912295 C71.9500813,21.5657045 71.8687182,21.9251069 71.6405797,22.2398766 C71.4992187,22.4353821 71.3108836,22.5441101 71.0547948,22.5533293 C70.6375896,22.568402 70.2619438,22.7282014 69.9146874,22.9523888 C69.7658632,23.0485319 69.6739639,23.1944294 69.6095759,23.3581799 C69.4490448,23.7663123 69.3449996,24.1901027 69.2595391,24.6190149 C69.1222755,25.3076743 69.0071087,25.9999921 68.944623,26.6997731 C68.8999904,27.1986341 68.8664793,27.6986658 68.8797959,28.2001608 C68.8885761,28.5311739 68.944184,28.8545775 69.0810086,29.1595427 C69.1636887,29.3439267 69.1683714,29.5321153 69.1006177,29.7191334 C68.9485741,30.139119 68.8010669,30.5611534 68.5815622,30.9530424 L68.5247782,31.0726427 L68.5247782,31.0726427 L68.4339087,31.321664 L68.4339087,31.321664 C68.2837675,31.7210162 68.0840182,32.0897841 67.7714435,32.3884568 C67.6858367,32.4702589 67.5954008,32.5451832 67.4890142,32.5991813 C67.2851675,32.7027875 67.1028322,32.6787884 66.9323502,32.5252814 C66.8512798,32.4524059 66.7867455,32.3657747 66.7271865,32.2753387 C66.4451962,31.8471582 66.2930062,31.3736134 66.2583245,30.8653869 C66.1863269,29.8113253 66.1834002,28.7556541 66.2133992,27.5419394 C66.2103261,27.2556077 66.2207811,26.9521547 66.2357832,26.637141 L66.2854509,25.6629792 C66.2930089,25.4966922 66.2994586,25.3289052 66.3036773,25.1603134 L66.3085179,24.6528186 C66.3080789,24.6036495 66.3086642,24.5544805 66.3058838,24.5056041 C66.2899332,24.2142482 65.9766268,23.9717687 65.6677105,24.0952766 C65.2301645,24.2701487 64.8196907,24.4914095 64.4778487,24.8161301 C64.101325,25.1734837 63.6592425,25.248408 63.1681373,25.187532 C62.7881015,25.1404117 62.5402076,24.9285165 62.387725,24.5926743 C62.1042712,23.9682566 62.0387125,23.318669 62.1903171,22.6504967 C62.2873382,22.2233406 62.5824988,21.9717882 63.0342395,21.933887 C64.0066453,21.8526703 64.8975417,21.5206329 65.7511223,21.0693312 C65.8976051,20.9917729 66.0132109,20.8795328 66.0975007,20.7365621 C66.2011069,20.5606656 66.1873513,20.4438891 66.0470146,20.299016 C65.9362867,20.1847517 65.8089943,20.1099168 65.655822,20.0983081 L65.5459586,20.0997058 C65.2266524,20.1143394 64.9171508,20.0885842 64.6464283,19.89103 C64.3246344,19.6558673 64.0834719,19.360414 63.9548422,18.9789148 C63.8423094,18.6457067 63.8387974,18.303572 63.8769912,17.9593886 L63.9081426,17.7559261 L63.9081426,17.7559261 L63.9448913,17.5530123 C63.9519154,17.509404 63.9587933,17.4655031 63.9601103,17.4214558 C63.9685978,17.1440018 63.7656291,16.9689834 63.4921263,17.0212256 C63.0084843,17.1138565 62.5368418,17.244974 62.0905156,17.4583326 C61.8778887,17.5600364 61.6605791,17.6522284 61.4260017,17.6927636 C60.7417324,17.8110035 60.2820896,17.555939 59.9806364,17.0581023 C59.7302548,16.6448482 59.6332337,16.1919368 59.6566475,15.717953 C59.6835734,15.1694839 60.192239,14.7863751 60.6438333,14.8273493 C60.9079706,14.8513484 61.1735713,14.8582263 61.4390257,14.8548605 C62.0076892,14.84769 62.5317201,14.689793 63.012289,14.3843888 C63.2870723,14.2098643 63.4458954,13.9705813 63.4970911,13.6660497 L63.512467,13.5315399 C63.540271,13.0994083 63.6612912,12.6908369 63.8494799,12.3036306 C64.026547,11.9393991 64.3424875,11.7548688 64.7273524,11.6774568 C64.8645428,11.6497992 65.0028857,11.6286445 65.1428748,11.6312168 L65.283431,11.6423361 C65.3950857,11.6582868 65.4881557,11.6212636 65.5483,11.5221938 C65.6102003,11.4199047 65.5834207,11.3231763 65.517423,11.2344964 C65.4675222,11.1676206 65.4138167,11.1035252 65.3592332,11.0404542 C64.8160323,10.4115001 64.537993,9.67689102 64.4812144,8.85272404 C64.4531178,8.44795738 64.4703855,8.04904417 64.5950642,7.65832581 C64.6906219,7.35818972 64.8571528,7.11336881 65.1123636,6.92605814 C65.3226491,6.77196584 65.5376174,6.62577571 65.7585855,6.48807309 C66.0028001,6.33567412 66.2584111,6.25283573 66.5410845,6.2785389 L66.6847489,6.30061608 C66.88962,6.34480969 67.0899546,6.3171521 67.2756556,6.19144908 C67.4634053,6.06442903 67.6469112,5.93594561 67.8131494,5.78112163 C67.9874362,5.61898083 68.0810915,5.42332897 68.105237,5.18816627 C68.1362969,4.88689607 68.1460375,4.58570819 68.1371132,4.28398526 L68.1220657,3.98206112 C68.0954325,3.59895225 68.0958715,3.21730675 68.1994777,2.84166104 C68.2989865,2.48050265 68.5956105,2.3037282 68.9566226,2.40821243 Z M16.470298,1.38501323 C16.9595009,1.50954556 17.3606091,1.76739042 17.6547454,2.18020559 C17.7536689,2.31893256 17.807667,2.48458543 17.8035696,2.65140901 C17.7943504,3.03071312 17.7080119,3.39070083 17.4601179,3.69449533 C17.3306101,3.85312406 17.1555917,3.93507248 16.9663787,3.9965338 C16.5491734,4.13233404 16.1098713,4.15501619 15.6841786,4.24779351 C15.5037457,4.28701168 15.3358978,4.35096072 15.1879516,4.46129841 C14.9955191,4.60470815 14.9230826,4.83577343 14.9946411,5.06405831 C15.0464442,5.22912585 15.1175638,5.38380349 15.2169262,5.52662788 C15.2870214,5.62716103 15.3497997,5.7329623 15.4106757,5.83949525 C15.4683323,5.94046741 15.5417932,6.02636691 15.6462774,6.0756823 L15.8651968,6.18653488 L15.8651968,6.18653488 L16.2942553,6.42410943 L16.2942553,6.42410943 C16.5992205,6.59107933 16.9306726,6.64815055 17.2726609,6.66234519 C17.758498,6.6828323 18.2444814,6.69790495 18.7300258,6.72351383 L20.347629,6.82346164 C20.8330271,6.85228992 21.3182788,6.88580097 21.8041159,6.90175165 C22.0852282,6.91097085 22.3604871,6.86692357 22.6123322,6.72087978 C22.9865145,6.50371646 23.3961103,6.3870863 23.8201934,6.31479609 C24.0342836,6.27850464 24.241057,6.32460063 24.4466598,6.37055028 C24.8524508,6.46113255 25.2184383,6.62883414 25.5071601,6.93936012 C25.6799835,7.12520743 25.8105156,7.34105372 25.9081221,7.57094831 C26.0284106,7.85440204 26.1434311,8.14341656 26.1621622,8.45789363 C26.1710887,8.60642514 26.1593818,8.75100557 26.1134321,8.89397629 C26.062507,9.05289769 26.0206548,9.21459949 25.9752905,9.37527693 C25.9278775,9.54312485 25.8536849,9.69487577 25.7291526,9.82131048 C25.6021325,9.95037924 25.5024774,10.1041789 25.3530678,10.2133459 C25.1719033,10.345634 24.9772758,10.4464599 24.7579174,10.4910925 C24.1501821,10.6143078 23.5348373,10.6751838 22.915834,10.7007926 L21.9880608,10.7312306 L21.9880608,10.7312306 C21.8361636,10.7379621 21.6847053,10.7558151 21.5333934,10.7717658 C21.3958371,10.7862531 21.2581345,10.7812777 21.1213099,10.7703025 C20.8325881,10.7471813 20.7222504,10.5493344 20.8624407,10.297782 C21.0921524,9.88577169 21.3347051,9.48174585 21.6037424,9.09477965 L21.8821132,8.7138361 L22.2666855,8.21043866 C22.340439,8.11297858 22.400437,8.01068939 22.321708,7.88776675 C22.2371255,7.75562493 22.1317632,7.67031077 21.9576228,7.69313926 C21.4703224,7.75708829 20.9891681,7.83976839 20.5208914,7.99971415 C19.9823732,8.18351275 19.4380016,8.35428741 18.8748989,8.44823542 C18.2989185,8.54437848 17.7238162,8.64769202 17.1413971,8.70212919 C16.9022833,8.72451867 16.6631695,8.75481031 16.4288848,8.81232054 C15.986217,8.92075587 15.7176896,9.19689278 15.6474481,9.64819444 C15.5095992,10.5355788 15.3754086,11.4235484 15.2785339,12.3169326 C15.2203895,12.8540849 15.1834477,13.3926682 15.1519691,13.931685 L15.1068812,14.7404108 C15.0862478,15.108008 15.0642973,15.4756052 15.0429322,15.8432024 C15.033274,16.0070992 14.9911291,16.1622159 14.9172291,16.3089913 C14.8819621,16.3790865 14.8434756,16.44845 14.8168423,16.5217646 C14.7378206,16.7381962 14.833232,16.9039954 15.0607852,16.9452623 C15.1766837,16.9661884 15.2944845,16.9743833 15.4127244,16.97731 L16.0510874,16.988128 C16.1574307,16.9914558 16.2637197,16.996724 16.3699112,17.0056993 L16.7367768,17.0378933 L16.7367768,17.0378933 C16.8235543,17.0459418 16.8959908,17.085599 16.9577448,17.1450116 L17.0705702,17.2612027 L17.0705702,17.2612027 C17.1469579,17.3368587 17.2388572,17.3798816 17.3467071,17.3836863 C17.5350422,17.3904178 17.6093811,17.3228104 17.6143565,17.1357924 C17.6171369,17.0327715 17.6165516,16.9293116 17.6090884,16.8265834 C17.5951865,16.6398581 17.666306,16.4914729 17.8029842,16.3707453 L17.9523938,16.2510421 L17.9523938,16.2510421 C17.9974654,16.2134336 18.0454638,16.1775812 18.0840966,16.1338266 C18.212141,15.9883681 18.1954586,15.8331052 18.0410737,15.7142799 C17.9860512,15.6719399 17.9256305,15.6389004 17.8626299,15.6114759 L17.7665465,15.5740896 C17.3393903,15.4249728 17.0053042,15.1530796 16.7326793,14.7990917 C16.5825381,14.6038788 16.451567,14.3969591 16.3485461,14.1724789 C16.2424522,13.9408283 16.2278185,13.7808826 16.4648836,13.5622559 C16.7805314,13.2711927 17.1456408,13.0456882 17.5711873,12.9412039 C17.8584458,12.8706697 18.1461433,12.8760842 18.4294507,12.9637397 C18.8163643,13.0832966 19.1826444,13.2471935 19.5114625,13.4870389 C19.8190617,13.7112264 20.0570048,13.9938021 20.2195846,14.3388635 C20.3739696,14.6666572 20.3663601,15.0052798 20.2835337,15.3466827 C20.2566078,15.4577521 20.1869516,15.5506758 20.1082226,15.6332095 C19.9214973,15.8285687 19.9940801,16.0075382 20.1513918,16.1402654 C20.1917807,16.174313 20.2361369,16.2019869 20.2820757,16.2269725 L20.3518728,16.2628954 C20.515038,16.3436731 20.6698619,16.4379138 20.8200032,16.5409346 C21.3459364,16.9013614 21.6608525,17.3948079 21.7710438,18.0227377 C21.8187495,18.2949235 21.8617725,18.5649143 21.8020672,18.8407585 C21.7580199,19.0441662 21.6806079,19.234111 21.5818308,19.4161535 C21.5006628,19.5660996 21.4109098,19.7108426 21.3157369,19.8519435 L21.1693083,20.0610583 C20.9399698,20.3779646 20.7494982,20.7150067 20.5857559,21.0677642 L20.4677713,21.3352099 C20.1156857,22.1741569 19.7014072,22.9816415 19.2057656,23.7456642 C19.1042081,23.9020979 18.9909437,24.0507757 18.8864594,24.205307 C18.6817347,24.5083698 18.4099879,24.7378254 18.1048764,24.9330383 C18.0028799,24.998158 17.8938592,25.0350348 17.7744486,25.0465954 L17.4377284,25.0825941 L17.4377284,25.0825941 C17.2660757,25.1022032 17.1172516,25.1711277 16.9925729,25.2911236 L16.8370538,25.4378259 L16.8370538,25.4378259 L16.6852663,25.5880403 C16.4355797,25.8529642 16.1333469,25.9948694 15.7868027,26.0380684 L15.6355948,26.0506099 C15.4185779,26.0599754 15.2069753,26.0996326 14.9996166,26.1644596 C14.86367,26.2068972 14.7547957,26.2863579 14.6656768,26.3956712 C14.5515343,26.5358616 14.488756,26.6858565 14.5452418,26.8724355 C14.5778749,26.9799928 14.5977766,27.0916475 14.6353851,27.1983268 C14.8013307,27.6676278 15.1121493,27.9838609 15.5896452,28.1477577 C16.1987394,28.3567262 16.8213801,28.4583972 17.4579361,28.4736896 L18.2783989,28.4749607 C18.3618595,28.4747059 18.445255,28.4731613 18.5285204,28.4686736 C19.1608403,28.4344309 19.7908188,28.3722379 20.4158218,28.267022 C20.7311769,28.2139018 20.9945826,28.0576145 21.2295989,27.848646 C21.3302784,27.7592344 21.3989102,27.6469944 21.4485183,27.5212913 L21.5825083,27.1521983 C21.6057975,27.0910621 21.6309023,27.0306252 21.6598281,26.9716516 L21.7278746,26.8355587 C21.8597865,26.9678886 22.0145447,27.0036067 22.1707642,27.0264403 L22.3575604,27.0530146 L22.3575604,27.0530146 C22.6099908,27.0955986 22.8609578,27.145792 23.0931938,27.254959 C23.4363528,27.4162218 23.6429799,27.6889929 23.7107337,28.0636143 C23.7746827,28.4176022 23.7909261,28.7762729 23.7929748,29.1343582 C23.7950235,29.4631762 23.7069289,29.7750192 23.5512269,30.0657898 C23.4896193,30.1808103 23.3937689,30.2661244 23.2869433,30.338122 C22.6096981,30.7942527 21.8900154,31.1507284 21.0842868,31.3266248 C20.5703531,31.4388649 20.0551024,31.5423247 19.5331203,31.5985179 L19.166374,31.6251729 L19.166374,31.6251729 L18.429597,31.6482723 L18.429597,31.6482723 C17.8668455,31.6737934 17.306248,31.6490216 16.7460065,31.6060993 L16.325864,31.5710067 C15.8073939,31.524618 15.2880457,31.4894973 14.7725024,31.415451 C14.3684674,31.3573554 13.9707249,31.2716023 13.5839576,31.1394605 C12.9545645,30.9241995 12.4713615,30.526018 12.1230807,29.9626226 C11.8380172,29.5015164 11.6220246,29.0067528 11.4282751,28.501892 C11.3510095,28.3003867 11.2775486,28.0971253 11.2087704,27.892547 C11.0938963,27.551144 10.8634164,27.3566628 10.5041603,27.3098351 C10.3507022,27.2898358 10.1970489,27.2862262 10.0433306,27.2859986 L9.81272055,27.2865676 C9.67033516,27.2864213 9.52765711,27.2877383 9.3855644,27.2960795 C9.11045185,27.3121765 8.86416757,27.2352035 8.63119992,27.0919401 C8.05990236,26.740879 7.60143021,26.2774314 7.23632073,25.7181334 C6.94218444,25.2674171 6.72926488,24.7768973 6.52966194,24.2799386 C6.36752113,23.8765622 6.22228219,23.4672956 6.08328084,23.0558707 L5.6743253,21.8188519 L5.6743253,21.8188519 C5.55506108,21.4603276 5.42862637,21.1041446 5.32019105,20.7421082 C5.25009588,20.5085552 5.13039265,20.3039769 4.96239839,20.1232513 C4.68421277,19.8242859 4.67909099,19.3587896 4.93898456,19.0441662 C5.02078664,18.9452428 5.11224693,18.8555385 5.21438979,18.7788582 L5.86169559,18.2835472 C5.97000626,18.2015771 6.07914074,18.1206856 6.190015,18.0420541 C6.40264189,17.8913275 6.63443885,17.8145009 6.89140568,17.8102571 C7.40299797,17.8017696 7.91093184,17.7530396 8.41784135,17.6879199 C9.05572201,17.6061178 9.69096861,17.506609 10.3259225,17.4050515 C10.752347,17.3368587 11.1774544,17.259593 11.6028545,17.1846688 C11.6701693,17.1728155 11.7376304,17.1565722 11.8021648,17.1344753 C12.0112796,17.0627705 12.1063983,16.9367748 12.1047886,16.7165384 C12.1028862,16.4317676 12.0904476,16.1471432 12.0838625,15.8625188 C12.0613267,14.8950884 12.0720092,13.9282434 12.1189832,12.961691 C12.1489822,12.3434195 12.1324462,11.7245625 12.1298121,11.105852 C12.1286415,10.8542996 12.1154712,10.6055276 12.0424493,10.3630481 C12.0054261,10.2404181 11.9578668,10.1223246 11.8949421,10.0105235 C11.6881687,9.64248731 11.3660821,9.48180988 10.9474135,9.53595437 C10.735811,9.56336807 10.528566,9.61048841 10.3221666,9.66148938 L10.0127625,9.73892305 C9.29322609,9.91672185 8.57281167,10.0920329 7.83630024,10.1855419 L7.41427129,10.2516752 L7.41427129,10.2516752 L6.57648961,10.4144122 L6.57648961,10.4144122 C5.98426593,10.5229938 5.4516012,10.206029 5.25726637,9.63546316 L5.18673219,9.44186002 L5.18673219,9.44186002 C5.15468451,9.35800923 5.10214972,9.29698692 5.00542131,9.2928895 C4.90152242,9.28835307 4.81137916,9.31703501 4.74947883,9.40790996 L4.7194907,9.46450423 L4.7194907,9.46450423 L4.67996901,9.58556243 L4.67996901,9.58556243 C4.56465588,9.94064786 4.46470807,10.2997941 4.37072348,10.6605684 L4.09725721,11.7453423 C3.9021907,12.5159502 3.71429468,13.288314 3.54278834,14.0644826 C3.46537635,14.4151048 3.43479203,14.7726048 3.40523206,15.1298121 C3.36879428,15.5685288 3.21894574,15.9604179 2.92554113,16.293187 C2.87329901,16.3523069 2.81798382,16.4076221 2.75227875,16.4519621 C2.63111216,16.5337642 2.50145805,16.5551293 2.35936534,16.5169355 C1.99469487,16.4187437 1.7705074,16.1538747 1.72733815,15.7536445 C1.69470511,15.451167 1.66543782,15.1481042 1.64421903,14.8446023 C1.58890385,14.0463369 1.53080827,13.2480715 1.50373603,12.4481964 C1.48807802,11.9862121 1.52436947,11.5261303 1.5618316,11.0659021 C1.61324448,10.4334359 1.73724025,9.81501801 1.87775577,9.19976531 L2.09391099,8.27789977 C2.11951987,8.16800109 2.14293371,8.05751706 2.16751823,7.9473257 C2.22663817,7.68333471 2.38804729,7.509926 2.64662382,7.4396845 C3.03675684,7.33359056 3.43464569,7.27373895 3.84043671,7.28632388 C4.12740252,7.29510407 4.37500382,7.40017365 4.57826517,7.6062154 C4.70001711,7.72957704 4.79689185,7.87079172 4.88542541,8.01873789 C4.9206925,8.07756515 4.95420355,8.13814845 4.99517776,8.19302462 C5.12731959,8.36921373 5.28097288,8.40184676 5.47018593,8.28565561 C5.69393438,8.14824566 5.93202381,8.04595647 6.18562491,7.9818611 L7.15395086,7.72864751 C7.63840651,7.60324184 8.12502209,7.48709751 8.62154171,7.41378294 C9.06830694,7.34793153 9.51565752,7.28603121 9.96315443,7.22471623 L10.8687278,7.10766874 C11.0194761,7.08709491 11.1699425,7.06486803 11.3198398,7.03930793 C11.7051437,6.97360285 11.794409,6.89297146 11.7720195,6.49361925 C11.7557761,6.201678 11.6960709,5.92041931 11.5650997,5.65613565 C11.4554937,5.43487492 11.2905405,5.31276857 11.0606328,5.30726666 L10.9580961,5.31209862 C10.5913769,5.35351184 10.2455838,5.27536817 9.90959529,5.13634853 C9.65101875,5.0290839 9.44761106,4.85699222 9.31444488,4.61026893 C9.14762131,4.30135266 9.02689372,3.97677837 8.9898706,3.62366848 C8.97918804,3.52211098 8.98284645,3.42168758 8.99104129,3.32163002 L9.01943057,3.0217866 C9.0304058,2.8753038 9.04781984,2.72896733 9.09069642,2.58672829 C9.19035156,2.25673956 9.40385646,2.05113682 9.74233271,1.97591988 C9.91076598,1.93845774 10.0799309,1.91387322 10.2531933,1.91738529 C10.6872858,1.92607768 11.119271,1.9008961 11.5506979,1.86466202 L12.4132659,1.78421911 L12.4132659,1.78421911 C12.9098587,1.73709877 13.4034882,1.67014983 13.8961482,1.59657918 L15.3732136,1.36920889 L15.3732136,1.36920889 C15.7394937,1.31447906 16.1060666,1.29223591 16.470298,1.38501323 Z M49.4188276,11.7658016 L49.5991325,11.7936187 C49.9951189,11.870299 50.3990076,11.8931275 50.7925063,11.9715639 C51.4716539,12.1070714 51.9912947,12.4702785 52.2150431,13.1516211 C52.342112,13.5386811 52.4033294,13.9409844 52.3840448,14.3474373 L52.3626966,14.5917183 C52.287626,15.1792592 52.3002109,15.7676781 52.3179177,16.3565361 L52.3384231,16.9158706 L52.3384231,16.9158706 L52.5356663,21.3005136 L52.5356663,21.3005136 C52.5592265,21.8302516 52.581616,22.3599896 52.6002007,22.8900202 C52.6170294,23.3659064 52.66254,23.8407683 52.6610115,24.3172398 C52.6572719,25.3531556 52.6596133,26.3895105 52.596835,27.423963 C52.5590802,28.0460393 52.5125452,28.6682619 52.3681111,29.277607 C52.2966989,29.5786211 52.2059703,29.8743671 52.1117296,30.1686497 C52.022318,30.447567 51.8547627,30.6755592 51.6269169,30.8576018 C51.2632708,31.1483723 50.8501629,31.3102205 50.3823252,31.3308539 C49.9799731,31.348524 49.5795142,31.3337624 49.1800843,31.295397 L48.1477295,31.1729081 C48.0423238,31.1589086 47.9371404,31.1430555 47.8324123,31.1234951 C46.9622957,30.960769 46.3807546,30.4494694 46.0364249,29.6485699 C45.9853534,29.5297447 45.9623786,29.404188 45.9587202,29.2757046 C45.9538911,29.1081493 46.0131574,29.0358591 46.1802736,28.998836 L46.2673072,28.9879705 L46.2673072,28.9879705 L46.3554384,28.9861047 C46.7089873,28.9820073 47.0635605,28.9749832 47.4135974,28.9255214 C48.0260155,28.8390366 48.5244375,28.5340714 48.9578861,28.1023788 C49.3474337,27.7144408 49.5492317,27.2426521 49.6273754,26.7082313 C49.6984949,26.2221016 49.7344937,25.7323134 49.7672731,25.2426716 C49.8192225,24.4688444 49.8625381,23.6944318 49.903805,22.9198729 C49.9415598,22.207946 49.9155119,21.4961654 49.8776108,20.7851165 C49.8379536,20.0401176 49.7887845,19.2954113 49.7396155,18.5508514 L49.6684594,17.40436 C49.6428139,17.0223304 49.6118637,16.6407215 49.5654751,16.260393 C49.4525033,15.3345222 49.2218771,14.4387967 48.8548652,13.5798016 C48.7626732,13.364248 48.6271657,13.1784007 48.4449768,13.0298692 C48.2595685,12.8787036 48.1078175,12.866704 47.9042635,12.9925534 C47.7097824,13.1130615 47.5214748,13.2420479 47.3494037,13.3920451 L47.023757,13.7025779 L47.023757,13.7025779 C46.8139105,13.9039369 46.5692359,14.0397371 46.2857822,14.1115883 C45.981695,14.1887077 45.8340415,14.4449428 45.9067708,14.7513714 C45.916868,14.794248 45.9291602,14.8369782 45.9452573,14.8780987 C46.1496893,15.3987639 46.3529506,15.9200144 46.5614801,16.4389235 C46.5976252,16.5289204 46.6463553,16.6162833 46.7107433,16.6913539 C46.8575188,16.8627139 46.9939044,17.0431468 47.163362,17.1947513 C47.2177992,17.243335 47.2637488,17.3026013 47.3077961,17.3612822 L47.7890967,18.0130649 L47.7890967,18.0130649 C47.9207995,18.1959854 47.975383,18.3985151 47.9363112,18.625044 C47.8924103,18.8790841 47.7560247,19.0554195 47.5147158,19.1480505 C47.2106287,19.264827 46.8951273,19.3328734 46.5717237,19.3691649 C46.3327562,19.3960908 46.0952521,19.4373577 45.8558457,19.4575521 C45.2511834,19.5081845 44.7963697,19.2602905 44.4957946,18.7384547 C44.2732168,18.3519801 44.2042923,17.9311164 44.2436568,17.4881559 C44.2785434,17.0941011 44.3618499,16.7118469 44.4780668,16.3368977 L44.5711578,16.0569853 C44.6089127,15.950745 44.6456431,15.8437731 44.6752031,15.7351914 C44.7878821,15.3207666 44.4843803,14.9989727 44.1279047,14.9471696 C43.9812755,14.9258044 43.8336221,14.9303409 43.6956268,14.999558 C43.5538267,15.0708239 43.457391,15.1780885 43.4540253,15.341839 C43.4464158,15.7082655 43.2765191,15.9962557 43.0379907,16.258198 C42.2486518,17.1248025 41.3413657,17.84829 40.3601797,18.4839756 C39.4859657,19.0504441 38.5738505,19.5522318 37.665979,20.06119 C37.5886158,20.1045056 37.5076755,20.1398215 37.4239385,20.1679181 L37.2963331,20.2047461 C37.2733583,20.2104532 37.2470177,20.2245015 37.227555,20.2024047 C37.2047265,20.1765032 37.2187748,20.1470895 37.2307744,20.1206026 L37.2604807,20.0698239 L37.2604807,20.0698239 C37.8431925,19.1824395 38.4610251,18.3211031 39.1556843,17.5166916 C39.34519,17.2973332 39.5314763,17.0754871 39.6991779,16.8387147 C39.764883,16.7459374 39.8478557,16.6689644 39.9308285,16.5922841 C40.014094,16.5153111 40.0877012,16.429997 40.1561867,16.3397074 C40.1873563,16.2987332 40.2122335,16.2564419 40.1721373,16.2074192 C40.1340899,16.1608842 40.0852135,16.1443482 40.0274106,16.1629329 C39.970632,16.181225 39.9189753,16.2082972 39.8797571,16.2555639 C39.7863578,16.3683893 39.6725447,16.4544626 39.5506647,16.5302672 L39.0689067,16.8084231 L39.0689067,16.8084231 C38.7538443,16.9955874 38.4395136,17.0061236 38.1225488,16.8122278 C38.0515756,16.7689122 37.977383,16.728816 37.9002637,16.6977927 C37.6768079,16.6080884 37.4824731,16.6707205 37.3516483,16.8736891 C37.2660415,17.0064163 37.2061899,17.1520211 37.1578988,17.302016 C36.8447388,18.2763242 36.6189416,19.2695097 36.5020188,20.2875725 C36.3997296,21.1784689 36.4048514,22.0714141 36.4352894,22.9647982 L36.4839279,24.215792 L36.4839279,24.215792 L36.5390419,25.4665664 C36.5719676,26.2021998 36.6059177,26.9378332 36.6457212,27.673174 C36.6735251,28.1862296 36.6398677,28.6934318 36.5317251,29.1956585 C36.5182621,29.2581442 36.4980677,29.3181422 36.4680687,29.3755061 C36.2728559,29.7472007 36.0357908,30.0890427 35.7416545,30.3899104 C35.5177597,30.6187807 35.3649845,30.617171 35.1473821,30.383618 C35.0829941,30.3145472 35.0364591,30.2340621 34.9956312,30.1497723 L34.3902373,28.904888 L34.3902373,28.904888 C34.28707,28.6940171 34.2389253,28.4723174 34.2333646,28.237301 L34.1271243,24.0223718 L34.1271243,24.0223718 L34.0919464,22.2335443 C34.0868772,21.8430103 34.0854916,21.4398076 34.0922962,21.0365226 C34.1107346,19.9387064 34.2450715,18.8537678 34.4607714,17.7781948 C34.594962,17.1092908 34.7449568,16.4438989 34.9474865,15.79197 C35.1027495,15.2923773 35.3146447,14.8185398 35.6203416,14.390652 C35.873211,14.0365177 36.2046631,13.798282 36.63738,13.7164799 C36.9837584,13.6510675 37.3212103,13.6920417 37.6517844,13.8101352 L37.9815618,13.935345 C38.0373159,13.9540165 38.094062,13.9699346 38.1526941,13.9806172 C38.2997623,14.0075431 38.4456597,14.0103235 38.5921425,13.986178 C39.2154383,13.8841327 39.8367179,13.771226 40.4564149,13.6501461 L44.7337377,12.7917798 L44.7337377,12.7917798 C45.6277071,12.6069568 46.5289934,12.4593033 47.4200362,12.2611637 C47.5780795,12.226043 47.7346596,12.1843371 47.8913859,12.1432165 C48.005382,12.1133639 48.1202561,12.0801455 48.2212283,12.0192696 C48.5974228,11.792631 49.0002825,11.7181411 49.4188276,11.7658016 Z M46.6093029,20.1209831 C47.0544584,20.3163423 47.4914191,20.5272131 47.9124291,20.771595 C48.236418,20.9594911 48.5024577,21.2098727 48.7336693,21.500058 C48.8971272,21.7052217 48.9323943,21.9340919 48.8362512,22.1784738 C48.7223429,22.4679859 48.5902655,22.7478514 48.4224866,23.0090047 L48.2896845,23.2012194 C48.0087185,23.5796455 47.816725,24.0027042 47.6784371,24.4515181 C47.5821477,24.7645318 47.626634,25.0487172 47.8313587,25.3112449 C47.9639395,25.4814342 48.0846671,25.6612817 48.2014436,25.8427389 C48.3256833,26.035464 48.4020709,26.2448715 48.3943151,26.4807659 C48.3846569,26.7775363 48.2550028,26.9480182 47.9608665,27.0069918 C47.7881894,27.0416736 47.611415,27.0592339 47.4356649,27.0744529 C46.7999793,27.1299145 46.1634157,27.1771811 45.5280227,27.2355694 C45.2388619,27.2622026 44.949701,27.2614709 44.6602475,27.2674707 L44.0130501,27.2970632 C43.905379,27.3045101 43.7979355,27.3151764 43.6909147,27.3320051 C42.9974262,27.4408795 42.4138364,27.762527 41.9154144,28.2490958 L41.7147871,28.4441623 L41.7147871,28.4441623 C41.3432388,28.7843945 40.8950102,28.8789279 40.4137096,28.8141008 C40.1532307,28.7789801 39.9913825,28.5970839 39.9259701,28.3411414 C39.905483,28.2608027 39.902849,28.1760739 39.888069,28.0941254 C39.8476801,27.870377 39.7759753,27.6567257 39.6678326,27.4568301 C39.4597422,27.0716725 39.2895529,26.6698326 39.1310705,26.2625782 C38.7826433,25.3662674 38.4383136,24.4684932 38.1075932,23.5654508 C37.9785245,23.21278 37.8245785,22.8756207 37.5567828,22.6018252 C37.5165402,22.5607047 37.4884436,22.5058285 37.4612251,22.4540254 C37.3731305,22.2860311 37.3839594,22.123305 37.5250278,21.9964312 C37.9425257,21.6206392 38.3809497,21.2725048 38.9302968,21.1036325 C39.2261892,21.0126948 39.5206838,20.9826092 39.8205081,21.0521724 L39.9708954,21.0954376 C40.2386912,21.1876296 40.5151248,21.2091939 40.7925747,21.1691919 L40.9591056,21.1378752 C41.4532838,21.0234401 41.9560959,20.971637 42.4602251,20.9332968 C43.0476196,20.8888105 43.6350142,20.8387635 44.2246038,20.8364221 C44.420402,20.8356904 44.6156149,20.8280809 44.8118521,20.8604213 C45.0201934,20.8949149 45.1953133,20.8224335 45.3429254,20.6900677 L45.4144656,20.6191124 C45.557729,20.4628251 45.7150407,20.3232201 45.8868397,20.1991268 C46.1132222,20.0356689 46.351897,20.0080114 46.6093029,20.1209831 Z M75.5777623,22.1823664 C75.4745951,22.2281697 75.4503032,22.31963 75.4484009,22.4260166 L75.390598,25.1506552 C75.3894273,25.2144579 75.3879639,25.2785533 75.3933784,25.341917 C75.4055243,25.481522 75.4785462,25.5630314 75.6155171,25.5721043 C75.826388,25.5858599 76.0384295,25.5921523 76.2449102,25.5333251 C76.5759233,25.4389381 76.8987416,25.3226006 77.2082432,25.1711423 C77.3146298,25.1190466 77.4166263,25.0603656 77.5035502,24.9790026 C77.7335911,24.7641806 77.7584683,24.5285789 77.5571093,24.2891725 L77.0228674,23.6412054 L77.0228674,23.6412054 L75.9700904,22.3323612 L75.9700904,22.3323612 C75.9393597,22.2946064 75.906434,22.2567053 75.8680938,22.226999 C75.7808773,22.1595379 75.6812222,22.1364167 75.5777623,22.1823664 Z M44.7663742,22.2539378 L44.7072215,22.2992014 C44.5882499,22.4095391 44.4492303,22.4688054 44.2895772,22.4983653 C43.9265457,22.565563 43.5678224,22.6510235 43.2202252,22.7736277 L42.9617201,22.8728403 C42.8247492,22.9299116 42.685697,22.9743003 42.5432195,23.0078276 L42.3267662,23.0502001 C42.0810673,23.088833 41.8535141,23.1748788 41.6669351,23.3493119 C41.4246019,23.5759871 41.3801156,23.7911017 41.5244034,24.089189 C41.6549355,24.3588871 41.7705413,24.634146 41.8706354,24.9162827 C41.9786317,25.2212479 42.226233,25.3975834 42.5521244,25.4035832 L43.0084015,25.4041685 C43.1703959,25.4010955 43.3323904,25.4069489 43.4940922,25.4000711 C44.1136808,25.3740232 44.5412759,25.0718384 44.7559515,24.4898583 C44.9119462,24.0667996 45.0454051,23.6353997 45.1339386,23.1922928 C45.1800346,22.9609349 45.2013997,22.7265039 45.18062,22.4900241 C45.1714008,22.3851009 45.1257438,22.3025671 45.0315031,22.2517884 C44.9362088,22.200395 44.847283,22.2046329 44.7663742,22.2539378 Z M10.8994151,19.6652182 C10.3597263,19.8630651 9.84930466,20.1295438 9.31356686,20.3367562 C9.08762336,20.4241191 8.95445717,20.6649889 8.98357813,20.9043954 C9.01255275,21.1432165 9.06318517,21.3785255 9.12962192,21.6094445 L9.2353866,21.9464025 L9.2353866,21.9464025 L9.55502203,22.9264564 L9.55502203,22.9264564 L9.64648232,23.251925 C9.73311351,23.6006448 9.86481633,23.9337065 9.96856888,24.2761339 C10.0483223,24.5395395 10.3467023,24.6599744 10.5618169,24.5278326 C10.8593189,24.344912 11.0865795,24.110481 11.0466296,23.7206407 C11.0666777,23.5156233 11.0207281,23.3224591 10.9359993,23.1360294 C10.828881,22.9001321 10.6683499,22.7283331 10.4027492,22.6753593 L10.3144378,22.6667959 L10.1387582,22.6724326 C9.94398435,22.6718472 9.76340516,22.63219 9.67194487,22.4336114 C9.65184799,22.3899056 9.64352307,22.3409317 9.63331204,22.2925431 L9.61487364,22.2211309 C9.51229178,21.9148487 9.59058179,21.6621256 9.83818309,21.4607666 C10.0637242,21.2773704 10.2756834,21.0775114 10.5035087,20.8969345 L10.7377133,20.7241088 C10.7740048,20.6995243 10.8091255,20.6699644 10.8359051,20.6357216 C10.9272191,20.5186524 11.0356544,20.418412 11.1487725,20.3247566 C11.2741828,20.2210041 11.3189618,20.0919353 11.3107669,19.9349163 C11.297743,19.6851199 11.1323828,19.579904 10.8994151,19.6652182 Z M17.0089626,18.0940036 L16.9149048,18.135618 L16.9149048,18.135618 L16.4963947,18.3402878 C16.4415511,18.3657341 16.3857644,18.3891642 16.328059,18.4084806 C16.0476783,18.5022823 15.7857361,18.6364728 15.5254035,18.7741754 C15.3847741,18.848368 15.2659489,18.9502182 15.1677572,19.0759212 C15.0171769,19.2683537 15.0069334,19.406788 15.1286853,19.6166345 C15.2053656,19.7489226 15.2971186,19.8703819 15.4001395,19.982622 C15.525501,20.1193246 15.5989335,20.2735064 15.6103593,20.4507564 L15.6057422,20.6923538 C15.5861331,20.9594179 15.5249645,21.2062875 15.3663358,21.4361821 L15.0323797,21.932989 L15.0323797,21.932989 L14.3250055,23.0245181 L14.3250055,23.0245181 C14.2331062,23.1913417 14.2935431,23.3600676 14.4704639,23.4317725 L14.6081116,23.4845451 L14.6081116,23.4845451 L14.7432351,23.5422565 C14.9014248,23.6204002 15.06459,23.6602037 15.2157555,23.6351802 C15.4482842,23.6408873 15.6519845,23.6075226 15.8564166,23.5814747 C16.2222577,23.5347933 16.4817123,23.3531898 16.6268781,23.004909 C16.8177008,22.5467295 16.9875975,22.0815259 17.1062763,21.5996399 C17.3162692,20.746352 17.4751906,19.8831132 17.5785041,19.0100698 C17.5981132,18.8445633 17.6171369,18.677886 17.6196247,18.5116478 C17.6247464,18.1572209 17.3411464,17.9662518 17.0089626,18.0940036 Z M80.6317848,17.6627646 L80.548373,17.7840776 L80.548373,17.7840776 C80.2595048,18.1863565 79.9320038,18.551905 79.4950431,18.7970186 C79.1486647,18.9912071 78.7933598,19.1710546 78.4077632,19.2797826 C78.3656183,19.2916358 78.3240587,19.3090499 78.2858649,19.3302686 C78.0960665,19.4359236 78.0662139,19.5860648 78.2043555,19.7525957 C78.2892307,19.8547385 78.3738131,19.956296 78.4436156,20.0697068 C78.833895,20.7042217 79.3056838,21.2743486 79.8237148,21.8075987 C79.8646891,21.8497436 79.906834,21.8920348 79.9539543,21.9265702 C80.1093636,22.039981 80.2672607,22.0316398 80.4097924,21.9040344 C80.5297883,21.7969161 80.6133464,21.666823 80.6565157,21.5103893 L80.8640208,20.7738779 L80.8640208,20.7738779 C80.9484569,20.4661323 81.0153327,20.1548746 81.0523558,19.8370318 C81.1192316,19.2611978 81.1198169,18.6809737 81.1672299,18.1582599 L81.1700469,17.941938 C81.1679616,17.8790499 81.1615228,17.8231494 81.1467428,17.7675415 C81.1142561,17.6459359 81.0412342,17.571158 80.9159702,17.5496465 C80.7981694,17.5293058 80.7033433,17.5683776 80.6317848,17.6627646 Z M7.32918585,14.383506 C7.53347156,14.3857204 7.74902517,14.4473281 7.95199385,14.552983 C8.43826993,14.8057061 8.79737961,15.1861809 9.05449278,15.6652865 C9.158099,15.858597 9.16044038,16.0606876 9.07307751,16.2619003 C8.91722918,16.621449 8.65660393,16.88983 8.32617619,17.09075 C8.17340092,17.18382 7.99823617,17.1983073 7.82672984,17.1545527 L7.13140399,16.9834366 C7.01586322,16.9535514 6.90081024,16.9217802 6.78671657,16.886318 C6.46038626,16.7849068 6.15805512,16.6365216 5.88908869,16.4234557 C5.78460446,16.3407756 5.68919308,16.2493153 5.60870803,16.1430751 C5.39564213,15.8622554 5.38715462,15.6208002 5.58792825,15.3316394 C5.88104019,14.909166 6.27483162,14.6223465 6.76798551,14.4749857 C6.94197956,14.4230362 7.11919302,14.3827937 7.32918585,14.383506 Z M69.0230593,14.9139804 C68.5645872,15.0563658 68.1137245,15.2207017 67.666813,15.3955738 C67.465015,15.4744491 67.3142884,15.623566 67.1938535,15.8013648 C67.1154172,15.9168242 67.1198073,15.981505 67.2036581,16.0957937 C67.31063,16.2412522 67.4530154,16.312079 67.6199853,16.2994941 C67.7579806,16.2993478 67.8788545,16.279885 67.9982651,16.2512031 C68.4145923,16.1514016 68.760678,15.9248728 69.0767648,15.6468335 C69.1872488,15.5496661 69.2833919,15.4377187 69.3713401,15.3196251 C69.4386549,15.2293355 69.4527032,15.1342168 69.3918272,15.0322203 C69.3125129,14.8996395 69.2030532,14.8580799 69.0230593,14.9139804 Z M7.85181191,10.8202617 C8.33428323,10.8593336 8.74417167,11.0750335 9.10328136,11.3893642 C9.28590927,11.5490661 9.45390353,11.7234666 9.6184074,11.9012926 L9.86393831,12.1691913 C9.94032594,12.2523104 10.0171526,12.3348441 10.0775895,12.4312799 C10.2103167,12.6428824 10.1965611,12.7943406 10.0259328,12.9753589 C9.97178828,13.0328691 9.91018063,13.0813065 9.84652427,13.1276951 C9.54053472,13.3508582 9.21669212,13.5451931 8.88597171,13.7285526 C8.70861191,13.8268907 8.57559206,13.85528 8.34803886,13.8520606 C8.17799589,13.8612798 8.0026848,13.8132815 7.83000777,13.7557712 C7.46241057,13.6334339 7.09598406,13.5074382 6.72926488,13.3823206 C6.53522272,13.3160301 6.36488708,13.2111069 6.22557476,13.0605267 C5.99919225,12.8159984 5.83031997,12.5356178 5.72642108,12.2187993 C5.62705862,11.9155902 5.69554408,11.6472091 5.91387809,11.4174608 C6.13572417,11.1840542 6.40600763,11.0273278 6.71507024,10.9433307 C7.08676486,10.8423585 7.46709334,10.7890921 7.85181191,10.8202617 Z M66.937033,11.3249323 L66.8408534,11.3599616 L66.8408534,11.3599616 L66.3828622,11.5728534 L66.3828622,11.5728534 L66.1964242,11.6483359 C65.9514894,11.7367881 65.8901654,11.8600432 65.9985773,12.0524285 L66.0736479,12.1630012 C66.1855953,12.3128498 66.2877381,12.4678201 66.3543212,12.6443019 C66.3900273,12.7389816 66.4554397,12.8109791 66.5385588,12.867904 C66.7548441,13.0158502 66.8464507,13.010582 67.0434196,12.8367343 C67.1789272,12.7171774 67.2908746,12.5807918 67.3109227,12.3940665 C67.3357999,12.1650499 67.3517506,11.9351554 67.3703353,11.7185774 L67.3700426,11.6320925 C67.3492628,11.3934178 67.1685373,11.263032 66.937033,11.3249323 Z M42.896176,1.00164096 C43.1971901,1.01437223 43.4910338,1.06046822 43.784292,1.12031983 C43.9262384,1.14944079 44.0376005,1.22568209 44.1227683,1.33894651 L44.3165069,1.59894847 C44.3474923,1.64313125 44.3772474,1.68805654 44.404905,1.73420131 C44.5573876,1.98897309 44.6184099,2.26218327 44.5791917,2.56524609 C44.4943166,3.2225895 44.3866129,3.87627449 44.2832994,4.53054483 C44.2730558,4.59551822 44.2720315,4.6568332 44.2939819,4.71887986 C44.3391999,4.8470706 44.4100268,4.89858104 44.5468514,4.89916638 L45.0331274,4.89931272 C45.604864,4.90897093 46.1686984,4.81487658 46.7358985,4.76878059 L48.2323352,4.63429738 L48.2323352,4.63429738 L49.7734046,4.50259456 L49.7734046,4.50259456 L50.5373541,4.44636478 L50.5373541,4.44636478 L51.3017426,4.39693963 C51.9333308,4.351868 52.5660897,4.32040566 53.1941658,4.23216477 L53.3012028,4.22400787 L53.3012028,4.22400787 L53.5177157,4.22528696 L53.5177157,4.22528696 C53.9156046,4.22089687 54.3117374,4.18036167 54.7100652,4.17831295 C55.2793141,4.17538623 55.7667608,4.35991651 56.1700641,4.7660002 C56.350058,4.94731108 56.5303445,5.12789028 56.6978998,5.32076174 C56.9696466,5.63362911 57.1279827,5.99844591 57.192956,6.40482228 C57.2223697,6.58905989 57.1892976,6.76744404 57.113349,6.93646266 C57.0053527,7.17630813 56.8547725,7.38834967 56.6658521,7.57053856 C56.4643468,7.76472705 56.2163065,7.86496753 55.9416329,7.90199066 C55.400188,7.97515889 54.8644502,7.92964825 54.3304684,7.82794441 L53.856089,7.72318376 L53.856089,7.72318376 L52.9153948,7.48156599 L52.9153948,7.48156599 C52.599308,7.40473935 52.2804409,7.3636188 51.9532326,7.3712283 C51.5970496,7.37934997 51.2410861,7.37302092 50.8851959,7.36157009 L49.8175982,7.32118123 C49.6067273,7.3138644 49.3954175,7.32030321 49.184254,7.32191291 C49.1503039,7.32220558 49.1145978,7.32513231 49.0831355,7.33640022 C49.0098209,7.36274078 48.9929922,7.42361675 49.0377711,7.48756579 L49.0774283,7.53102772 C49.2097165,7.66112084 49.2754216,7.82472501 49.296494,8.00325549 C49.343029,8.39543722 49.2619586,8.75454691 49.0000163,9.0627315 C48.8466557,9.24316437 48.672369,9.39989072 48.4859363,9.54593451 C47.3859042,10.407271 46.2101833,11.1519563 45.0069699,11.8548193 L43.7403911,12.5865136 L43.7403911,12.5865136 C43.4747904,12.7406059 43.1917757,12.7921163 42.8892982,12.7348988 C42.7764728,12.71368 42.7635952,12.6852907 42.833105,12.5926597 C43.9557984,11.1000278 45.1537087,9.67061318 46.4338601,8.31041574 L46.9889143,7.7199481 C47.0259374,7.68072992 47.0644239,7.64238977 47.0888621,7.59336705 C47.1500307,7.47161511 47.0964716,7.37342335 46.9615494,7.36874058 C46.8933566,7.3663992 46.8237004,7.37210632 46.7562393,7.38381323 L44.0586729,7.85413864 L44.0586729,7.85413864 C43.2703584,7.99008521 42.4799951,8.11491022 41.6928513,8.25685659 L39.9096866,8.57129707 C39.3157983,8.6787812 38.7233917,8.79405775 38.1354118,8.93249205 C37.8014354,9.01107473 37.4782422,9.12291238 37.1565717,9.23973003 L36.835066,9.35716047 C36.0509952,9.64237025 35.2705828,9.93650654 34.4948532,10.2433741 C33.9657005,10.4526353 33.4103536,10.5108772 32.8459339,10.489073 C32.6378434,10.4810245 32.4569716,10.3907349 32.2984892,10.2588858 C31.9793294,9.99343143 31.7251429,9.67617397 31.5870013,9.28238254 C31.4522254,8.89854199 31.3276931,8.51031135 31.2502811,8.10905676 C31.0799454,7.22723322 31.6777299,6.25014464 32.5415541,6.00195799 C32.6265755,5.9775198 32.7134994,5.95966675 32.802472,5.95908141 C33.0584876,5.95754487 33.3128204,5.93654559 33.5666776,5.91007698 L34.3280296,5.8282566 L34.3280296,5.8282566 L34.6289157,5.80317819 L34.6289157,5.80317819 L35.5036426,5.74768483 L35.5036426,5.74768483 L36.6480479,5.64592137 L36.6480479,5.64592137 L37.8813717,5.54714425 L37.8813717,5.54714425 L39.4468142,5.41620022 C39.707537,5.39212516 39.9679833,5.36476024 40.2278769,5.33085896 C40.5540609,5.28827505 40.8746841,5.21218008 41.2020388,5.17998606 L41.7153871,5.13271938 L41.7153871,5.13271938 L41.8328953,5.12510989 L41.8328953,5.12510989 C42.0313275,5.10213506 42.1131296,4.95492058 42.0248887,4.77814613 L41.989585,4.71361175 L41.989585,4.71361175 L41.4973457,3.89251784 L41.4973457,3.89251784 C41.4436403,3.80383794 41.4064708,3.70871924 41.3665209,3.61360053 C41.2279403,3.28434349 41.2153554,2.94718427 41.2842799,2.60226922 C41.3409121,2.31837648 41.3937395,2.03360571 41.5168085,1.76800503 C41.5671482,1.65956971 41.6328533,1.56415833 41.7244599,1.486161 C41.8254321,1.40011515 41.9264043,1.314801 42.0346932,1.23768168 C42.2935625,1.05344407 42.5796502,0.988470677 42.896176,1.00164096 Z M17.5856654,9.68511296 L17.6901442,9.69196367 C18.0207183,9.70615831 18.3234884,9.73176719 18.6189417,9.81386195 C19.0212207,9.92551667 19.3468193,10.1530699 19.6039325,10.4770588 C19.9583594,10.923385 19.9365553,11.6076543 19.5581292,12.0425663 C19.2604808,12.3845546 18.8877618,12.5790358 18.4313384,12.6072787 C18.2560273,12.618254 18.0905208,12.5905964 17.9315994,12.5123064 C17.6797543,12.3883594 17.4349334,12.2546079 17.2212822,12.0696386 C16.79237,11.698383 16.5572073,11.2267405 16.4923802,10.6671499 C16.4773076,10.5358861 16.4563815,10.4050613 16.4885755,10.2718951 C16.5523782,10.0089285 16.7130556,9.83888548 16.9719248,9.76908299 L17.0961862,9.7414254 L17.0961862,9.7414254 L17.3487412,9.70279257 L17.3487412,9.70279257 C17.4300067,9.69059787 17.5115974,9.68425662 17.5856654,9.68511296 Z M39.6340435,9.60205455 C39.9419355,9.90555638 40.2280232,10.2279356 40.4985994,10.5652412 C40.6550331,10.7601613 40.7453227,10.9752759 40.778541,11.2181945 C40.7984428,11.3639456 40.8164422,11.5102821 40.8105887,11.6580819 L40.8041933,11.8637442 C40.8014833,11.8979274 40.7971745,11.9320238 40.7901016,11.9659738 C40.7535175,12.1418702 40.6687887,12.2197212 40.4921606,12.2384523 C40.3428974,12.2541103 40.1990486,12.2309892 40.0575413,12.1832835 L38.6067981,11.6966415 L38.6067981,11.6966415 L38.550422,11.6801787 C38.0774625,11.5699873 37.7274257,11.2776071 37.4264116,10.9168877 C37.2254916,10.6764569 37.2101263,10.2495934 37.3814863,9.98896816 C37.4088512,9.94740861 37.4411916,9.91155617 37.4814341,9.88214254 C37.8889812,9.58464051 38.3350147,9.37991579 38.8416316,9.32752734 C39.1464504,9.29577233 39.4132218,9.38445222 39.6340435,9.60205455 Z M71.0777696,9.96195445 C71.0145523,10.010026 70.968374,10.0708562 70.9331229,10.1393828 L70.9012879,10.2102874 C70.8399241,10.3658919 70.7650324,10.5142771 70.6819458,10.6583914 L70.5518364,10.8717283 L70.3301366,11.2181067 C70.2966256,11.2721048 70.2645779,11.3275663 70.2382373,11.3852229 C70.220238,11.4245874 70.2066287,11.468342 70.2023849,11.5112186 C70.1846782,11.6938465 70.3375998,11.809745 70.5073501,11.7389182 C70.7327083,11.6448238 70.8952881,11.4769759 71.0202594,11.2719585 C71.1816685,11.0076748 71.3021034,10.7236358 71.4137582,10.4359383 C71.4333673,10.3851595 71.4444888,10.3326247 71.4455132,10.2781876 C71.4449278,10.1990195 71.4298552,10.1216075 71.4001489,10.0488783 C71.3405899,9.90327353 71.2028873,9.86683575 71.0777696,9.96195445 Z" id="形状" fill="#F43E3D"></path>
    </g>
</svg>