<?xml version="1.0" encoding="UTF-8" standalone="no"?>
<svg
   width="89px"
   height="34px"
   viewBox="0 0 89 34"
   version="1.1"
   id="svg1"
   sodipodi:docname="logo-dsp.svg"
   xml:space="preserve"
   inkscape:version="1.4 (86a8ad7, 2024-10-11)"
   xmlns:inkscape="http://www.inkscape.org/namespaces/inkscape"
   xmlns:sodipodi="http://sodipodi.sourceforge.net/DTD/sodipodi-0.dtd"
   xmlns="http://www.w3.org/2000/svg"
   xmlns:svg="http://www.w3.org/2000/svg"><defs
     id="defs1" /><sodipodi:namedview
     id="namedview1"
     pagecolor="#ffffff"
     bordercolor="#000000"
     borderopacity="0.25"
     inkscape:showpageshadow="2"
     inkscape:pageopacity="0.0"
     inkscape:pagecheckerboard="0"
     inkscape:deskcolor="#d1d1d1"
     inkscape:zoom="11.313709"
     inkscape:cx="42.824154"
     inkscape:cy="21.434174"
     inkscape:window-width="2883"
     inkscape:window-height="1214"
     inkscape:window-x="182"
     inkscape:window-y="139"
     inkscape:window-maximized="1"
     inkscape:current-layer="layer3"
     showgrid="false"
     showguides="false" /><title
     id="title1">white备份</title><g
     inkscape:groupmode="layer"
     id="layer3"
     inkscape:label="Layer 1"
     style="fill:#f43e3e;fill-opacity:1"><path
       d="m 68.22756,9.2787785 q 0.06113,0.6418474 -0.152821,1.2836945 -0.213949,0.611283 -0.611283,0.764104 -0.183385,0.122257 -0.397334,0.03056 -0.183385,-0.09169 -0.244513,-0.244513 -0.03056,-0.183385 -0.305642,-0.458462 Q 66.24089,10.348524 65.87412,10.073447 65.537914,9.7678051 64.743246,9.4315993 63.948577,9.0953935 62.878832,8.8508802 62.023035,8.6980594 61.503445,8.3312895 61.014418,7.9645196 60.769905,7.108723 60.464263,5.3360017 62.145292,4.9997959 q 1.681029,-0.3362057 3.637135,0.8863607 2.139491,1.3142589 2.445133,3.3926219 z m 2.689646,17.7272135 q 0.03056,-4.676317 0.06113,-7.763297 0.03056,-3.08698 0.03056,-3.576007 0,-1.46708 0.213949,-1.956106 0.213949,-0.519591 0.794668,-0.672412 0.397334,-0.03056 0.702976,0.09169 0.336205,0.09169 0.641847,0.305641 0.305642,0.21395 0.336206,0.244514 0.183385,-0.183385 0.519591,-0.519591 0.336205,-0.36677 0.458462,-0.489027 0.122257,-0.122256 0.36677,-0.397334 0.275077,-0.305641 0.458462,-0.51959 0.213949,-0.244514 0.519591,-0.611284 0.336206,-0.397334 0.73354,-0.916925 1.008617,-1.3142585 2.047799,-2.170055 1.069745,-0.8557965 1.467079,-0.5195907 0.336206,0.3362058 0.397335,1.1003098 0.06113,0.7335399 -0.06113,1.3448231 -0.09169,0.5807188 -0.183385,0.8252328 -0.397334,0.764104 -1.833849,1.650464 -1.436516,0.855797 -2.93416,1.589337 -1.497644,0.702975 -1.803285,1.008617 -0.244514,0.305642 -0.336206,0.825232 -0.06113,0.489027 -0.06113,2.108927 0,6.112833 0,8.130067 0.550154,-0.244513 1.925542,-1.344823 0.855796,-0.672411 1.008617,-0.275077 0.03056,0.06113 0.06113,0.122256 0.09169,2.292312 -1.558772,4.309547 -1.650465,2.017235 -3.881648,2.842467 -1.192003,0.427898 -1.956107,0.09169 -0.764104,-0.336205 -1.130874,-0.978053 -0.336205,-0.641847 -0.183385,-1.467079 0.183385,-0.794669 0.825233,-1.283695 0.244513,-0.244513 1.222566,-0.641848 1.008618,-0.366769 1.130874,-0.489026 z M 80.330968,6.6196965 q -0.855797,0.3056416 -2.047799,0.4890265 -1.161438,0.183385 -2.108927,0.3056417 -0.947489,0.091692 -1.894978,0.3362057 -0.947489,0.2139492 -1.619901,0.7335399 -0.641847,0.4890266 -0.916924,1.3142589 -0.825233,1.9561068 -1.497644,7.2131418 -0.336206,2.964724 -0.825233,5.257036 -0.458462,2.261748 -0.855796,3.545443 -0.36677,1.283694 -0.978053,2.292312 -0.611284,1.008617 -0.916925,1.344823 -0.305642,0.336206 -0.978053,0.825232 -0.641848,0.519591 -0.794669,0.641847 -0.275077,0.21395 -0.580719,0.397335 -0.275077,0.183385 -0.733539,0.427898 -0.427899,0.244513 -0.702976,0.275077 -0.275078,0.03056 -0.458463,-0.122256 -0.15282,-0.122257 0.03056,-0.672412 0.213949,-0.550155 0.794668,-1.497644 0.183385,-0.275077 0.519591,-0.825232 0.916924,-1.436516 1.344823,-2.231184 0.427898,-0.794668 1.069745,-2.506261 0.641848,-1.711593 1.069746,-3.881649 0.427898,-2.170055 0.978053,-5.80719 0.580719,-3.637135 1.161438,-8.8330427 0.213949,-0.6418474 0.794668,-0.580719 0.580719,0.030564 1.192003,0.3667699 0.611283,0.3362058 0.794668,0.6418474 0.550155,-0.2445133 1.772721,-0.6724116 1.222567,-0.4584624 1.986671,-0.764104 0.794668,-0.3056416 1.711593,-0.8863607 0.916924,-0.6112832 1.467079,-1.3448231 0.03056,-0.061128 0.519591,0.2139492 0.519591,0.2750774 1.039182,0.7335398 0.51959,0.4584625 0.88636,1.0391815 0.36677,0.5501549 0.09169,1.1614381 -0.275078,0.6112833 -1.314259,1.0697457 z m 2.231184,18.3384965 q 0.88636,0.427898 2.322876,0.886361 1.46708,0.427898 2.108927,0.825232 0.641847,0.36677 0.702976,1.008617 0.03056,0.336206 -0.244514,0.886361 -0.244513,0.580719 -0.855796,1.192002 -0.580719,0.611284 -1.619901,0.794669 -1.039181,0.213949 -2.536825,-0.183385 -4.645753,-1.681029 -8.252324,-11.553253 -0.36677,-1.008618 0.06113,-0.947489 0.489026,0.06113 2.047799,1.98667 0.825232,0.978053 1.467079,1.650465 0.641848,0.641847 1.894978,1.6199 1.253131,0.947489 2.903596,1.83385 z M 61.656265,12.51858 q 3.086981,0.03056 3.148109,2.017234 0.06113,1.375387 -1.039181,2.628518 -0.855797,0.947489 -1.192003,0.489027 -0.122256,-0.152821 -0.152821,-0.489027 -0.06113,-0.764104 -0.336205,-1.130874 -0.275078,-0.36677 -0.611284,-0.427898 -0.305641,-0.06113 -0.794668,-0.183385 -0.458462,-0.152821 -0.794668,-0.397334 -0.183385,-0.122257 -0.336206,-0.36677 -0.122256,-0.275078 -0.122256,-0.611283 0,-0.336206 0.15282,-0.641848 0.183385,-0.336206 0.702976,-0.580719 0.519591,-0.244513 1.375387,-0.305641 z m 1.894978,7.885553 q 0.855797,1.83385 0.825233,3.514879 -0.03056,1.650464 -0.702976,3.025852 -0.641847,1.375387 -1.405951,2.231183 -0.764104,0.855797 -1.375388,1.10031 -1.130874,0.519591 -1.925542,0.183385 -0.764104,-0.305642 -1.161438,-0.947489 -0.397334,-0.641847 -0.305641,-1.497644 0.122256,-0.855796 0.764104,-1.405951 0.275077,-0.213949 0.88636,-0.611283 0.641848,-0.397335 1.039182,-0.672412 0.397334,-0.305642 0.855796,-0.947489 0.458463,-0.641847 0.73354,-1.46708 0.794668,-2.750774 1.46708,-2.750774 0.183385,0 0.305641,0.244513 z m 14.76249,-5.134779 q 0.183385,-0.916925 1.589337,-1.008617 3.178672,-0.03056 2.322876,2.322876 -0.275078,0.641847 -1.375387,1.711593 -1.10031,1.069746 -2.353441,1.772721 -1.25313,0.672412 -1.711593,0.244514 -0.152821,-0.275078 0,-0.702976 0.183385,-0.427898 0.489027,-0.916925 0.305641,-0.489027 0.611283,-1.405951 0.336206,-0.947489 0.427898,-2.017235 z"
       id="text3"
       style="font-size:31.2977px;font-family:dspFont;-inkscape-font-specification:dspFont;fill:#f43e3e;stroke-width:1.08617;stroke-miterlimit:3.7;fill-opacity:1"
       transform="scale(1.0001253,0.99987471)"
       aria-label="派" /><path
       d="m 48.333776,13.123974 0.203539,0.02908 q 0.174463,0.02908 0.581542,0.08723 0.407078,0.05815 0.581541,0.08723 1.104927,0.203539 1.424775,1.134005 0.203539,0.610618 0.174462,1.163082 l -0.02908,0.261694 q -0.05815,0.581541 -0.02908,1.715546 l 0.02908,0.523387 0.174463,4.274326 q 0.05815,0.930466 0.08723,1.541084 0,0.145385 0.02908,0.639695 0.02908,0.49431 0.02908,0.756003 -0.02908,2.151702 -0.08723,3.024014 -0.05815,1.163082 -0.20354,1.802777 -0.08723,0.348924 -0.261693,0.872311 -0.145385,0.407079 -0.49431,0.668772 -0.552464,0.436156 -1.250313,0.465233 -0.552464,0.02908 -1.192159,-0.02908 l -1.017697,-0.116308 q -0.174462,-0.02908 -0.319848,-0.05815 -1.27939,-0.232616 -1.802777,-1.424776 -0.05815,-0.174462 -0.05815,-0.378001 -0.02908,-0.20354 0.203539,-0.261694 h 0.08723 l 0.08723,-0.02908 q 0.697849,0 1.046774,-0.05815 0.843234,-0.08723 1.541083,-0.78508 0.552464,-0.523387 0.668772,-1.366622 0.08723,-0.49431 0.145386,-1.424775 0.05815,-0.901389 0.145385,-2.26801 0.02908,-0.785081 -0.02908,-2.064471 -0.02908,-0.726926 -0.145385,-2.180779 l -0.05815,-1.104928 q -0.05815,-0.639695 -0.116309,-1.134005 -0.174462,-1.366621 -0.697849,-2.587857 -0.145385,-0.319848 -0.407079,-0.552464 -0.261693,-0.203539 -0.552464,-0.02908 -0.319847,0.203539 -0.552464,0.378002 l -0.319847,0.319847 q -0.319848,0.290771 -0.726926,0.407079 -0.49431,0.116308 -0.378002,0.610618 0,0.05815 0.02908,0.116308 0.465233,1.163082 0.610618,1.512007 0.05815,0.145385 0.145385,0.261693 0.378002,0.407079 0.465233,0.49431 0.05815,0.05815 0.145385,0.145385 l 0.465233,0.639695 q 0.20354,0.290771 0.145386,0.610619 -0.05815,0.378001 -0.407079,0.494309 -0.436156,0.174463 -0.930466,0.232617 -0.08723,0 -0.348924,0.02908 -0.232617,0.02908 -0.378002,0.02908 -0.901389,0.08723 -1.366622,-0.697849 -0.29077,-0.523387 -0.232616,-1.192159 0.02908,-0.552464 0.232616,-1.134005 l 0.08723,-0.261694 q 0.05815,-0.203539 0.08723,-0.319847 0.08723,-0.290771 -0.08723,-0.49431 -0.174463,-0.232617 -0.436156,-0.261694 -0.261694,-0.05815 -0.436156,0.02908 -0.232616,0.116308 -0.232616,0.348925 -0.02908,0.436156 -0.436156,0.872311 -1.075851,1.163082 -2.675089,2.180779 -0.756003,0.49431 -2.675089,1.541084 -0.116308,0.05815 -0.232616,0.08723 l -0.145385,0.05815 q -0.05815,0 -0.05815,-0.02908 -0.02908,0 0,-0.05815 l 0.02908,-0.05815 q 0.98862,-1.453853 1.890008,-2.471549 0.348925,-0.407079 0.552464,-0.668773 0.05815,-0.08723 0.232616,-0.232616 0.08723,-0.116308 0.20354,-0.261693 0.05815,-0.08723 0.02908,-0.116309 -0.05815,-0.08723 -0.145385,-0.05815 -0.08723,0.02908 -0.145386,0.08723 -0.116308,0.145386 -0.319847,0.290771 l -0.49431,0.261693 q -0.49431,0.261694 -0.930466,0 -0.145385,-0.08723 -0.232616,-0.116308 -0.348925,-0.145385 -0.552464,0.174462 -0.116308,0.174463 -0.203539,0.407079 -0.465233,1.48293 -0.639696,2.907705 -0.116308,1.046774 -0.05815,2.616935 l 0.02908,1.221236 0.05815,1.221236 q 0.05815,1.308468 0.116309,2.151702 0.02908,0.756003 -0.116309,1.48293 -0.02908,0.08723 -0.05815,0.174462 -0.319847,0.552464 -0.726926,0.98862 -0.319847,0.29077 -0.610618,-0.02908 -0.05815,-0.08723 -0.145385,-0.232617 l -0.610618,-1.192159 q -0.145386,-0.29077 -0.145386,-0.668772 l -0.116308,-4.099864 -0.02908,-1.744623 q 0,-0.610618 0,-1.163082 0.02908,-1.512007 0.378002,-3.169399 0.232616,-1.134005 0.49431,-1.919085 0.232616,-0.785081 0.668772,-1.366622 0.378002,-0.552464 1.017697,-0.668772 0.465233,-0.08723 0.988619,0.08723 l 0.348925,0.145385 q 0.08723,0.02908 0.174462,0.02908 0.20354,0.05815 0.436156,0 0.872312,-0.145386 1.860931,-0.319848 l 4.24525,-0.843235 q 0.348924,-0.05815 1.27939,-0.232616 0.930466,-0.174462 1.424776,-0.261693 0.145385,-0.02908 0.465232,-0.116309 0.20354,-0.05815 0.319848,-0.116308 0.552464,-0.319847 1.192159,-0.261693 z m -2.791397,8.141574 q 0.756004,0.319848 1.308468,0.610618 0.436155,0.261694 0.814157,0.726926 0.232616,0.290771 0.08723,0.668773 -0.174462,0.465232 -0.407079,0.78508 l -0.116308,0.203539 q -0.407079,0.49431 -0.610618,1.221237 -0.145385,0.465232 0.145385,0.814157 0.145386,0.203539 0.378002,0.523387 0.203539,0.319847 0.174462,0.639695 0,0.407079 -0.436155,0.49431 -0.174463,0.05815 -0.523387,0.08723 -0.232617,0 -0.901389,0.05815 -0.639695,0.05815 -0.98862,0.08723 -0.203539,0 -0.872311,0.02908 l -0.639695,0.02908 q -0.174463,0 -0.319848,0.02908 -1.017697,0.145386 -1.7737,0.901389 l -0.203539,0.174462 q -0.523387,0.465233 -1.308468,0.378002 -0.378001,-0.05815 -0.49431,-0.465233 0,-0.05815 -0.02908,-0.145385 0,-0.05815 0,-0.08723 -0.05815,-0.348925 -0.203539,-0.639695 -0.261693,-0.465233 -0.552464,-1.163082 -0.610618,-1.541084 -1.017697,-2.616935 -0.232616,-0.610618 -0.552464,-0.930466 -0.02908,-0.05815 -0.08723,-0.145385 -0.145385,-0.261693 0.05815,-0.436156 0.785081,-0.697849 1.395699,-0.872311 0.49431,-0.145385 0.901388,-0.05815 l 0.145386,0.02908 q 0.407078,0.145385 0.814157,0.08723 l 0.174462,-0.02908 q 0.581541,-0.145385 1.48293,-0.20354 1.250313,-0.08723 1.7737,-0.08723 0.436156,0 0.581541,0 0.290771,0.05815 0.523387,-0.145385 l 0.08723,-0.08723 q 0.203539,-0.203539 0.465233,-0.407079 0.348925,-0.232616 0.726926,-0.05815 z m -1.831854,2.064471 -0.05815,0.05815 q -0.174462,0.145385 -0.436156,0.174462 -0.610618,0.116308 -1.046774,0.290771 l -0.261693,0.08723 q -0.20354,0.08723 -0.436156,0.116308 l -0.203539,0.05815 q -0.407079,0.05815 -0.668772,0.290771 -0.348925,0.319847 -0.145386,0.726926 0.20354,0.378002 0.348925,0.78508 0.174462,0.465233 0.697849,0.49431 h 0.436156 q 0.05815,0 0.232616,0 0.20354,0 0.261694,-0.02908 0.930465,-0.02908 1.250313,-0.872311 0.261693,-0.69785 0.378002,-1.250314 0.08723,-0.378001 0.05815,-0.697849 -0.02908,-0.174462 -0.174463,-0.232616 -0.116308,-0.05815 -0.232616,0 z M 41.820517,2.6562353 q 0.407078,0 0.901388,0.1163082 0.20354,0.029077 0.348925,0.2035394 l 0.174462,0.2616934 q 0.05815,0.058154 0.08723,0.1163082 0.232617,0.3780017 0.174463,0.8141575 -0.05815,0.4943098 -0.290771,1.9190853 -0.02908,0.087231 0,0.1744624 0.08723,0.1744623 0.261694,0.1744623 h 0.494309 q 0.08723,0 1.686469,-0.1163082 l 1.512007,-0.1453853 1.512007,-0.1163082 0.78508,-0.058154 0.756003,-0.058154 q 1.453853,-0.087231 1.890009,-0.1453853 h 0.116308 0.203539 q 0.20354,-0.029077 0.581541,-0.029077 0.407079,-0.029077 0.610618,-0.029077 0.872312,0 1.453853,0.5815411 0.378002,0.3489246 0.523387,0.5233869 0.407079,0.4361557 0.49431,1.0758509 0.05815,0.2326164 -0.08723,0.4943098 -0.145386,0.3489247 -0.436156,0.6396952 -0.290771,0.2616934 -0.726926,0.3198475 -0.69785,0.087231 -1.599238,-0.087231 L 52.782565,9.1985718 51.823022,8.9659554 q -0.49431,-0.1163082 -0.959542,-0.1163082 -0.465233,0 -1.046774,0 l -1.075851,-0.058154 q -0.08723,0 -0.639695,0 -0.05815,0 -0.08723,0.029077 -0.116309,0.029077 -0.05815,0.1453852 l 0.05815,0.029077 q 0.174462,0.1744623 0.203539,0.4652328 0.08723,0.6106177 -0.290771,1.0176967 -0.203539,0.261694 -0.523387,0.49431 -1.366621,1.046774 -3.460169,2.238933 l -1.27939,0.697849 q -0.378002,0.232617 -0.843234,0.145385 -0.145386,0 -0.05815,-0.116308 1.715546,-2.209856 3.605554,-4.1870952 l 0.552464,-0.552464 q 0.08723,-0.087231 0.08723,-0.1453852 0.116308,-0.2035394 -0.116308,-0.2035394 -0.116308,0 -0.20354,0 L 42.983599,9.31488 q -0.232617,0.029077 -1.075851,0.1744623 -0.814158,0.1453853 -1.27939,0.2326164 l -1.773701,0.2907703 q -1.046773,0.174463 -1.7737,0.348925 -0.378001,0.08723 -0.988619,0.29077 l -0.319848,0.116309 q -1.221236,0.436155 -2.326164,0.872311 -0.697849,0.261694 -1.657392,0.232617 -0.261693,0 -0.523387,-0.20354 -0.523387,-0.436156 -0.726926,-0.959543 -0.232617,-0.668772 -0.319848,-1.1340045 -0.145385,-0.6687722 0.232617,-1.2793903 0.407078,-0.610618 1.046773,-0.7850803 0.145386,-0.029077 0.261694,-0.029077 0.319848,0 0.756003,-0.058154 l 0.756004,-0.087231 0.319847,-0.029077 0.872312,-0.029077 1.134005,-0.1163082 1.221236,-0.087231 1.570161,-0.1453853 q 0.436155,-0.029077 0.78508,-0.058154 0.116308,-0.029077 0.436156,-0.087231 0.348924,-0.058154 0.523387,-0.058154 l 0.523387,-0.058154 h 0.116308 q 0.348924,-0.058154 0.203539,-0.3489246 l -0.05815,-0.058154 -0.49431,-0.8141575 Q 40.395741,5.3894781 40.30851,5.1859388 40.104971,4.749783 40.221279,4.197319 q 0.116308,-0.552464 0.232616,-0.8141574 0.08723,-0.1744623 0.20354,-0.2616935 0.203539,-0.1744623 0.319847,-0.2326164 0.348925,-0.2616934 0.843235,-0.2326164 z m -3.25663,8.3741907 q 0.465233,0.407079 0.872311,0.930466 0.232617,0.261693 0.290771,0.639695 0.02908,0.261693 0.02908,0.407079 v 0.203539 q -0.02908,0.05815 -0.02908,0.116308 -0.05815,0.232617 -0.290771,0.261694 -0.203539,0.02908 -0.436155,-0.05815 l -1.453853,-0.465232 -0.05815,-0.02908 q -0.610618,-0.145386 -1.104928,-0.726927 -0.145385,-0.174462 -0.174462,-0.436155 0,-0.290771 0.116308,-0.465233 0.05815,-0.08723 0.116308,-0.116308 0.639695,-0.465233 1.337545,-0.552464 0.465232,-0.02908 0.78508,0.29077 z"
       id="text2"
       style="font-size:29.7749px;font-family:dspFont;-inkscape-font-specification:dspFont;fill:#f43e3e;stroke-width:1.03332;stroke-miterlimit:3.7;fill-opacity:1"
       transform="scale(0.99539345,1.0046279)"
       aria-label="商" /><path
       d="m 15.826431,2.655639 q 0.289832,0 0.492715,0.028983 0.492714,0.1159328 0.898479,0.434748 0.434748,0.2898321 0.521698,0.6955969 0.08695,0.8405129 -0.463731,1.275261 -0.318816,0.2318656 -1.217295,0.3767816 -0.869496,0.1159328 -1.130345,0.4637313 -0.173899,0.4057648 0.521698,1.3042441 0.72458,0.4057649 1.246278,0.5796641 2.521538,0.2608489 5.448842,0.2898321 0.231865,-0.08695 0.695597,-0.2898321 0.492714,-0.2028824 0.927462,-0.2608488 0.666614,-0.028983 1.130345,0.2028824 0.463731,0.2028824 0.637631,0.4347481 0.202882,0.2318656 0.405764,0.579664 0.318816,0.7245801 0.144917,1.4491601 -0.115933,0.550681 -0.521698,0.956446 -0.521698,0.63763 -3.130186,0.666614 -0.521698,0.02898 -0.840513,0.05797 -0.81153,0.08695 -0.840513,-0.231866 -0.02898,-0.173899 0.550681,-1.014412 0.579664,-0.8405127 0.898479,-1.1883112 0.173899,-0.2318656 0.08695,-0.3767816 -0.08695,-0.1738992 -0.289832,-0.2028824 -0.434748,0.028983 -1.130345,0.2028824 -0.289832,0.057966 -0.869496,0.2608488 -0.840513,0.289832 -2.492556,0.4927145 -1.304244,0.08695 -1.652042,0.4057645 -0.202883,0.231866 -0.289832,0.608648 -0.08695,0.376781 -0.202883,1.188311 -0.08695,0.81153 -0.144916,1.275261 -0.05797,0.492714 -0.115933,1.246278 -0.05797,0.72458 -0.115932,1.478143 -0.02898,0.753563 -0.02898,0.898479 -0.02898,0.260849 -0.173899,0.492715 -0.115933,0.202882 -0.02898,0.376781 0.08695,0.1739 0.666614,0.1739 0.115932,0 0.347798,0 0.231866,0 0.289832,0.02898 0.579664,0 0.72458,0.05797 0.02898,0 0.173899,0.1739 0.1739,0.144916 0.318816,0.144916 0.02898,0 0.05797,0 0.05797,0 0.08695,0 0.05797,-0.02898 0.08695,-0.08695 0.05797,-0.05797 0.05797,-0.173899 -0.02898,-0.463732 0.05797,-0.608648 0.05797,-0.08695 0.173899,-0.173899 0.144916,-0.115933 0.202883,-0.173899 0.08695,-0.05797 0.115933,-0.173899 0.02898,-0.115933 -0.08695,-0.202883 -0.144916,-0.115932 -0.463731,-0.202882 -0.318816,-0.115933 -0.782547,-0.579664 -0.666614,-0.753563 -0.579664,-1.130345 0.08695,-0.231866 0.608647,-0.550681 0.492715,-0.289832 0.985429,-0.318815 0.492715,-0.02898 0.869496,0.144916 0.376782,0.144916 0.869496,0.463731 0.724581,0.550681 0.782547,1.304244 -0.02898,0.550681 -0.318815,0.840513 -0.115933,0.289832 0.318815,0.521698 0.782546,0.318815 1.188311,1.072378 0.434748,0.72458 0.231866,1.594077 -0.05797,0.231865 -0.898479,1.507126 -1.130345,2.289673 -1.217295,2.434589 -0.08695,0.115933 -0.289832,0.434748 -0.173899,0.289832 -0.260849,0.405765 -0.05797,0.08695 -0.202882,0.318815 -0.144916,0.202883 -0.260849,0.318816 -0.115933,0.08695 -0.289832,0.231865 -0.173899,0.115933 -0.376782,0.231866 -0.115933,0.05797 -0.376781,0.08695 -0.231866,0 -0.376782,0.02898 -0.289832,0.173899 -0.550681,0.434748 -0.260849,0.260849 -0.63763,0.405765 -0.08695,0.05797 -0.434748,0.08695 -0.318816,0.02898 -0.405765,0.05797 -1.101362,0.173899 -0.492715,1.304244 0.260849,0.550681 1.304244,0.782546 1.043396,0.260849 2.144758,0.231866 1.101361,-0.02898 2.17374,-0.173899 0.550681,-0.144916 0.811529,-0.376782 0.260849,-0.202882 0.405765,-0.608647 0.144916,-0.376782 0.202883,-0.463731 0.115933,0.115932 0.202882,0.144916 0.08695,0.02898 0.173899,0.02898 0.08695,0.02898 0.289832,0.05797 0.202883,0.02898 0.463732,0.08695 0.405765,0.144916 0.608647,0.376781 0.231866,0.231866 0.318815,0.81153 0.115933,1.304244 -0.318815,1.767976 -1.970858,1.738992 -6.60817,1.420177 -1.970858,-0.08695 -3.014254,-0.376782 -1.014412,-0.260849 -1.478143,-0.840513 -0.753563,-0.782547 -1.275261,-2.492556 -0.05797,-0.08695 -0.115933,-0.173899 -0.02898,-0.05797 -0.08695,-0.115933 -0.05797,-0.05797 -0.08695,-0.08695 -0.02898,0 -0.115933,-0.05797 -0.05797,-0.02898 -0.05797,-0.02898 -0.289832,-0.05797 -0.8405132,-0.05797 -0.5216976,0 -0.7825465,0 Q 8.3487649,27.957976 7.5372352,27.117463 7.0735039,26.711698 6.6097726,25.668303 6.1460414,24.595924 5.6243437,23.146764 5.1316292,21.697604 4.95773,21.262856 4.6389148,20.857091 4.6099316,20.770141 q -0.057966,-0.202882 -0.028983,-0.434748 0.057966,-0.202882 0.2608488,-0.405765 0.2028824,-0.202882 0.4927145,-0.405764 0.3188152,-0.202883 0.3767816,-0.260849 0.4347481,-0.347799 0.7535633,-0.434748 0.057966,0 0.8694961,-0.05797 0.8405129,-0.05797 1.2172946,-0.115933 0.2318656,-0.02898 1.9418747,-0.289832 0.260849,-0.05797 0.579664,-0.08695 0.318815,-0.05797 0.463731,-0.08695 0.376782,-0.08695 0.434748,-0.231865 0.05797,-0.1739 0.02898,-0.550681 -0.05797,-0.347799 0,-3.188153 0,-0.260849 0,-0.840513 0.02898,-0.608647 0.02898,-0.956445 0,-0.347799 -0.08695,-0.753564 -0.05797,-0.434748 -0.260849,-0.666613 -0.202882,-0.260849 -0.550681,-0.318816 -0.347798,0 -1.2172941,0.202883 Q 9.0443617,11.089751 8.8994457,11.118734 8.4067313,11.234667 7.2184199,11.408566 6.1750246,11.640432 5.8851925,11.553482 5.5663773,11.43755 5.3634949,11.26365 5.1606125,11.060768 5.102646,10.886869 5.0736628,10.71297 4.9867132,10.597037 4.9287468,10.452121 4.7838308,10.452121 q -0.2318656,0.05797 -0.289832,0.376781 -0.1449161,0.405765 -0.5506809,1.912892 -0.3767817,1.507126 -0.4347481,1.738992 -0.2608488,0.985429 -0.289832,1.767975 -0.2318656,0.956446 -0.6376305,1.217295 -0.3767816,0.231866 -0.6955969,-0.02898 -0.3188152,-0.289832 -0.3767816,-0.72458 -0.08695,-0.72458 -0.1738992,-2.144757 -0.057966,-1.449161 0,-1.941875 0,-1.043395 0.6086472,-3.3330684 0.057966,-0.4057648 0.2898321,-0.5506809 0.2608488,-0.144916 0.9564457,-0.2318656 0.6376305,-0.08695 0.9854289,0.144916 0.3767817,0.2028824 0.5506809,0.5216977 0.1738992,0.3188152 0.3188152,0.3477984 0.2028825,0 0.4057649,-0.1159328 Q 5.6533269,9.2638094 6.0301086,9.1768598 7.2763863,8.8580445 7.653168,8.7710949 8.1748656,8.6551621 9.5660594,8.4812629 10.986236,8.2783805 11.420984,8.1914309 11.768783,8.1334645 11.594884,7.2639683 11.449968,6.8002371 11.247085,6.6553211 11.073186,6.5104051 10.609455,6.5683715 9.4211434,6.4524386 9.1023282,5.7278586 8.7255465,5.0612449 8.8994457,4.1917488 q 0.08695,-0.6666137 0.5216977,-0.840513 0.1159328,-0.08695 0.6376306,-0.1159328 0.840513,0.028983 1.825942,-0.08695 1.304244,-0.144916 1.970858,-0.2318656 1.652042,-0.2608488 1.970857,-0.2608488 z m 1.710009,8.202247 q 0.1739,0 0.376782,0.02898 0.898479,0.05797 1.44916,0.521697 0.405765,0.318816 0.434748,0.89848 0.05797,0.579664 -0.434748,1.014412 -0.463731,0.376782 -0.840513,0.405765 -0.376781,0 -0.695597,-0.144916 -0.405764,-0.144916 -0.782546,-0.521698 -0.347798,-0.405765 -0.521698,-0.782546 -0.289832,-0.724581 0,-1.101362 0.260849,-0.318815 1.014412,-0.318815 z m -9.9412384,1.101361 q 0.6376304,0.02898 1.1593281,0.405765 0.3767817,0.260849 0.7825465,0.695597 0.1738992,0.173899 0.2318656,0.260849 0.08695,0.08695 0.2028825,0.231866 0.1159327,0.144916 0.057967,0.202882 -0.02898,0.05797 -0.02898,0.202882 -0.057966,0.144916 -0.782546,0.579664 -0.6086473,0.376782 -0.8115297,0.376782 -0.3477985,0.05797 -0.6955969,-0.05797 0,0 -0.5216977,-0.1739 Q 7.0445207,14.625702 6.8126551,14.567736 6.5807894,14.480786 6.522823,14.451803 6.088075,14.277904 5.7692597,13.756206 5.4504445,13.205525 5.5373941,12.88671 q 0.057966,-0.260849 0.3767816,-0.492715 0.3477985,-0.260848 0.7535633,-0.347798 0.4927145,-0.08695 0.9274626,-0.08695 z m -0.3477985,3.506968 q 0.3188153,0.02898 0.6666137,0.202882 0.5216977,0.260849 0.8694961,0.81153 0.3767817,0.492715 0.08695,0.956446 -0.2028824,0.347798 -0.5216976,0.550681 -0.3188153,0.260849 -0.6666137,0.173899 -0.8405129,-0.202882 -1.1883114,-0.318815 -0.1738992,-0.02898 -0.434748,-0.1739 -0.7535633,-0.405764 -0.7825465,-0.869496 -0.057966,-0.318815 0.4637312,-0.782546 0.5216977,-0.463731 1.2462778,-0.550681 0.057966,-0.02898 0.2608488,0 z m 10.0281889,3.593917 q -0.202883,-0.05797 -0.579664,0.144916 -0.376782,0.173899 -0.434749,0.202883 -0.347798,0.115933 -0.608647,0.231865 -0.231865,0.115933 -0.492714,0.347799 -0.231866,0.202882 -0.202883,0.434748 0.115933,0.202882 0.289832,0.405765 0.1739,0.202882 0.231866,0.405765 0.08695,0.202882 0.02898,0.55068 0,0.231866 -0.144916,0.463732 -0.115933,0.202882 -0.492714,0.695597 -0.347799,0.492714 -0.666614,1.043395 0,0.173899 0.05797,0.260849 0.05797,0.05797 0.289832,0.144916 0.231866,0.08695 0.376782,0.115933 1.014412,0 1.362211,-0.231866 0.260849,-0.202883 0.521697,-1.043395 0.289832,-0.840513 0.463732,-1.681026 0.02898,-0.376782 0.115932,-0.840513 0.08695,-0.492715 0.115933,-0.695597 0.05797,-0.202882 0.05797,-0.434748 0,-0.260849 -0.05797,-0.347799 -0.05797,-0.115932 -0.231865,-0.173899 z m -6.347322,1.53611 q -0.08695,0 -0.202882,0.05797 -0.144916,0.05797 -0.7535637,0.318816 -0.5796641,0.231865 -0.7245801,0.289832 -0.2318657,0.05797 -0.3188153,0.260849 -0.08695,0.173899 -0.08695,0.289832 0.028983,0.202882 0.5506809,1.883908 0,0.02898 0.08695,0.347798 0.08695,0.289832 0.1159328,0.376782 0.2318656,0.666614 0.2318656,0.72458 0.3477988,0.637631 0.9854288,-0.08695 0.231866,-0.405764 0,-1.014412 -0.115933,-0.289832 -0.376781,-0.405765 -0.115933,-0.05797 -0.347799,-0.05797 -0.2318656,0 -0.3188152,-0.02898 -0.2318656,-0.08695 -0.2608488,-0.376782 -0.08695,-0.260849 -0.057966,-0.463731 0.057966,-0.115933 0.144916,-0.202883 0.08695,-0.115932 0.2318656,-0.231865 0.1738988,-0.115933 0.2028828,-0.173899 0.289832,-0.231866 0.550681,-0.405765 0.08695,-0.05797 0.173899,-0.144916 0.08695,-0.115933 0.115933,-0.115933 0.02898,-0.05797 0.115932,-0.144916 0.115933,-0.08695 0.144916,-0.08695 0.08695,-0.173899 0.05797,-0.405765 -0.05797,-0.202882 -0.260849,-0.202882 z"
       id="text1"
       style="font-size:29.6788px;font-family:dspFont;-inkscape-font-specification:dspFont;fill:#f43e3e;stroke-width:1.02999;stroke-miterlimit:3.7;fill-opacity:1"
       transform="scale(1.0034787,0.99653338)"
       aria-label="电" /></g></svg>
